<?xml version="1.0" standalone="no"?>
<!DOCTYPE svg PUBLIC "-//W3C//DTD SVG 20010904//EN"
 "http://www.w3.org/TR/2001/REC-SVG-20010904/DTD/svg10.dtd">
<svg version="1.0" xmlns="http://www.w3.org/2000/svg"
 width="512.000000pt" height="512.000000pt" viewBox="0 0 512.000000 512.000000"
 preserveAspectRatio="xMidYMid meet">
<metadata>
Created by potrace 1.11, written by Peter Selinger 2001-2013
</metadata>
<g transform="translate(0.000000,512.000000) scale(0.100000,-0.100000)"
fill="#000000" stroke="none">
<path d="M3160 5113 c0 -7 -7 -10 -17 -6 -12 5 -14 3 -8 -7 6 -10 4 -11 -6 -4
-22 13 -38 13 -33 0 3 -8 -5 -12 -23 -12 -18 1 -27 -4 -25 -12 1 -8 -2 -11 -7
-7 -6 3 -29 -3 -51 -14 -22 -10 -37 -14 -34 -8 3 7 0 5 -8 -4 -7 -9 -19 -14
-27 -11 -10 3 -11 0 -5 -9 6 -11 3 -10 -11 1 -17 13 -18 13 -13 -1 7 -18 -35
-44 -53 -34 -5 4 -9 -1 -9 -10 0 -9 -4 -13 -10 -10 -5 3 -10 1 -10 -5 0 -7 -7
-9 -16 -6 -10 4 -13 2 -8 -6 5 -8 2 -9 -11 -4 -16 6 -16 4 -4 -11 9 -11 10
-14 2 -9 -8 4 -13 2 -13 -6 0 -9 -3 -9 -10 2 -8 13 -10 13 -10 -2 0 -9 -5 -20
-12 -24 -7 -5 -8 -3 -3 6 6 9 4 11 -4 6 -7 -5 -10 -15 -6 -23 5 -14 3 -14 -12
-2 -15 13 -16 12 -11 -9 5 -19 4 -21 -8 -11 -11 9 -14 7 -14 -10 0 -12 -4 -20
-9 -17 -5 3 -11 -1 -15 -9 -3 -8 -12 -15 -20 -15 -8 0 -18 -5 -22 -12 -4 -6
-3 -8 4 -4 6 3 13 2 16 -3 4 -5 -4 -8 -17 -7 -20 2 -23 -1 -21 -21 2 -18 -1
-22 -10 -14 -10 8 -12 4 -11 -19 1 -16 -2 -27 -7 -24 -4 3 -8 0 -8 -5 0 -6 -5
-11 -10 -11 -6 0 -3 12 6 28 l16 27 -20 -25 c-11 -13 -18 -29 -15 -34 4 -5 -1
-7 -11 -3 -11 4 -15 3 -11 -4 10 -14 -3 -59 -16 -59 -7 0 -6 6 2 18 13 15 12
16 -4 3 -14 -11 -15 -16 -5 -29 10 -13 10 -14 1 -8 -12 7 -18 -11 -14 -37 1
-5 -3 -6 -9 -2 -6 3 -10 -3 -10 -15 0 -16 -5 -20 -15 -16 -8 3 -14 2 -14 -2 1
-4 0 -10 -1 -14 -6 -20 -5 -34 5 -40 5 -4 0 -8 -13 -8 -13 0 -21 -4 -17 -9 3
-5 0 -13 -6 -17 -9 -5 -6 -11 7 -22 18 -14 18 -14 -4 -9 -13 3 -21 3 -18 0 3
-4 -2 -16 -11 -27 -17 -20 -17 -20 1 -6 18 14 18 13 11 -9 -5 -17 -4 -21 5
-16 7 4 5 -3 -4 -16 -10 -17 -12 -29 -6 -39 5 -8 10 -19 10 -25 -1 -5 -5 -2
-11 7 -5 9 -16 15 -24 12 -8 -4 -12 -11 -9 -16 4 -6 10 -5 15 3 6 10 9 10 9 2
0 -6 -5 -15 -10 -18 -6 -4 -8 -11 -5 -16 4 -5 3 -14 -1 -20 -5 -8 -9 -8 -14 1
-5 8 -9 7 -13 -4 -4 -9 -1 -15 6 -13 7 1 11 -8 11 -20 -2 -26 6 -29 24 -11 9
9 9 5 0 -15 -7 -15 -17 -27 -21 -27 -5 0 -5 4 -2 10 4 6 -1 7 -11 3 -15 -5
-15 -7 2 -17 11 -6 20 -17 22 -25 3 -12 0 -12 -13 -1 -13 11 -14 10 -9 -5 5
-13 4 -16 -4 -11 -18 11 -14 0 5 -15 11 -10 14 -10 9 -1 -4 7 -2 12 4 12 7 0
10 -6 7 -14 -3 -7 0 -20 6 -27 10 -11 9 -11 -5 -1 -12 10 -18 10 -24 1 -5 -8
-3 -9 5 -5 15 10 11 -25 -4 -37 -6 -4 -2 -14 11 -25 16 -12 20 -25 18 -47 -4
-24 -2 -27 7 -15 9 13 10 13 6 -1 -3 -9 0 -28 8 -42 8 -16 9 -29 3 -38 -8 -11
-8 -10 -4 4 4 12 2 16 -6 11 -6 -4 -9 -3 -6 2 3 5 2 18 -2 29 -6 14 -8 8 -6
-21 1 -36 4 -41 22 -39 19 2 20 -1 13 -34 -5 -20 -4 -41 2 -50 8 -12 9 -11 4
7 -4 12 -3 22 2 22 5 0 10 -12 11 -27 1 -15 8 -30 15 -35 9 -6 9 -8 -1 -8 -7
0 -10 -5 -6 -12 4 -6 3 -8 -4 -4 -5 3 -13 0 -15 -6 -4 -10 -6 -9 -6 1 -1 11
-4 11 -16 1 -8 -7 -22 -10 -30 -6 -10 4 -14 2 -9 -6 5 -8 -2 -9 -22 -4 -21 5
-25 4 -14 -4 12 -7 8 -10 -18 -10 -18 0 -31 -4 -28 -8 8 -13 -28 -11 -36 2 -5
7 -8 5 -8 -6 0 -11 -6 -16 -20 -13 -11 2 -23 -1 -26 -7 -5 -7 -2 -8 7 -3 8 5
10 4 6 0 -10 -12 -38 -15 -31 -4 3 5 0 9 -5 9 -6 0 -11 -5 -11 -11 0 -5 -4 -7
-10 -4 -5 3 -10 1 -10 -6 0 -8 -4 -8 -15 1 -13 11 -14 10 -9 -4 4 -11 1 -16
-11 -16 -10 0 -14 5 -9 13 4 6 -4 2 -17 -10 -20 -18 -28 -20 -39 -10 -10 10
-11 9 -5 -2 6 -10 2 -11 -15 -6 -15 5 -20 4 -16 -4 4 -7 -1 -11 -13 -11 -32 0
-35 -1 -48 -12 -7 -6 -20 -8 -28 -4 -8 3 -15 1 -15 -4 0 -6 -5 -10 -11 -10 -5
0 -7 6 -4 13 4 6 0 3 -9 -7 -13 -16 -18 -17 -31 -6 -13 11 -14 10 -8 -6 6 -17
5 -18 -11 -5 -9 8 -16 10 -14 5 2 -5 -1 -11 -7 -12 -5 -2 -18 -8 -29 -14 -12
-7 -16 -7 -12 0 3 5 -1 12 -9 16 -8 3 -17 1 -20 -4 -10 -17 -35 -11 -35 8 0
14 -2 15 -10 2 -9 -14 -15 -7 -11 14 1 5 -5 4 -13 -4 -12 -9 -16 -9 -16 -1 0
7 -4 10 -8 7 -13 -8 -67 10 -65 21 1 5 -8 10 -20 10 -17 2 -19 0 -7 -7 8 -5
11 -10 7 -10 -5 0 -19 8 -32 18 -13 11 -37 17 -59 17 -29 -1 -36 2 -31 13 4
12 3 13 -10 2 -11 -9 -18 -10 -28 -1 -8 6 -17 8 -20 4 -4 -3 -7 -1 -7 6 0 8
-8 11 -20 8 -11 -3 -18 0 -17 6 1 6 -10 11 -25 11 -19 -1 -28 4 -29 15 0 12
-2 11 -9 -4 -5 -11 -9 -14 -9 -7 -1 7 -5 10 -11 7 -5 -3 -10 -2 -10 3 0 6 -7
13 -16 16 -12 5 -14 3 -8 -7 5 -7 2 -5 -7 4 -12 13 -19 15 -28 6 -8 -8 -11 -8
-11 2 0 7 -4 9 -10 6 -5 -3 -10 0 -10 7 0 9 -3 9 -10 -2 -9 -14 -15 -7 -11 14
1 5 -4 4 -13 -3 -10 -8 -16 -9 -21 -1 -3 6 -10 8 -15 5 -5 -3 -12 0 -15 6 -4
5 -13 8 -21 5 -8 -3 -17 1 -21 10 -5 13 -7 13 -14 2 -6 -8 -9 -9 -9 -2 0 7 -7
15 -16 18 -8 3 -12 2 -9 -4 3 -6 2 -10 -3 -10 -5 0 -14 10 -21 23 -6 12 -9 14
-7 4 5 -15 3 -16 -15 -6 -11 6 -23 8 -26 5 -4 -3 -11 -1 -18 4 -6 5 -21 11
-33 13 -12 2 -25 6 -28 10 -4 4 -18 7 -31 7 -13 0 -22 4 -19 8 3 5 -11 9 -31
10 -23 1 -41 8 -46 18 -7 12 -11 13 -17 4 -6 -10 -12 -10 -26 0 -17 10 -17 11
-1 6 11 -3 15 -2 12 4 -3 6 -17 7 -30 4 -13 -3 -32 -1 -42 6 -16 9 -15 10 7 5
22 -5 23 -4 7 5 -11 7 -23 8 -30 2 -15 -11 -60 11 -49 24 4 4 -1 2 -10 -5 -10
-7 -18 -9 -18 -4 0 5 -6 10 -12 11 -32 2 -53 10 -51 19 1 5 -4 10 -12 10 -8 0
-12 -4 -9 -9 3 -4 1 -8 -4 -8 -6 0 -13 7 -16 15 -5 13 -10 14 -27 4 -12 -6
-19 -7 -15 -1 3 5 -1 13 -10 16 -8 3 -12 2 -9 -4 3 -6 1 -10 -4 -10 -6 0 -11
5 -11 11 0 5 -4 7 -10 4 -5 -3 -10 -1 -10 5 0 6 -6 10 -12 9 -32 -4 -49 2 -42
14 5 8 2 8 -9 -2 -13 -10 -17 -10 -17 -1 0 8 -8 10 -21 7 -17 -5 -18 -3 -7 10
12 15 11 15 -9 4 -20 -10 -23 -9 -23 6 0 10 -3 14 -8 8 -8 -13 -22 -13 -41 -1
-10 6 -12 5 -7 -2 4 -7 1 -12 -9 -12 -10 0 -14 5 -10 13 4 6 -2 2 -13 -10 -14
-16 -22 -19 -31 -10 -8 8 -11 -437 -11 -1736 0 -1572 2 -1747 16 -1747 8 0 12
4 9 10 -4 6 1 7 11 3 14 -5 13 -8 -7 -19 -22 -12 -21 -12 19 -9 26 2 48 -2 56
-10 8 -8 16 -11 20 -8 3 4 6 1 6 -5 0 -7 5 -12 11 -12 5 0 8 4 4 9 -3 5 0 13
6 17 8 4 9 3 5 -4 -4 -7 -2 -12 4 -12 6 0 8 -5 4 -12 -5 -8 0 -7 11 2 11 9 16
10 11 3 -4 -8 -1 -13 9 -13 10 0 13 5 9 13 -5 8 -2 8 9 -2 9 -7 17 -21 18 -30
0 -12 2 -11 9 4 5 11 9 14 9 8 1 -16 51 -17 51 -1 0 6 3 8 6 5 4 -4 1 -15 -7
-24 -7 -10 -9 -15 -5 -11 5 4 15 0 23 -10 12 -16 13 -16 7 1 -5 13 -2 16 10
11 9 -3 16 -11 16 -18 1 -6 7 0 15 14 l15 25 -6 -26 c-4 -18 -1 -28 10 -32 19
-7 31 9 15 19 -8 5 -9 3 -4 -6 5 -9 4 -11 -4 -6 -6 4 -9 12 -5 17 4 6 10 6 18
0 7 -6 16 -8 20 -4 4 4 4 -1 0 -12 -5 -16 -4 -18 6 -8 16 14 63 -4 53 -21 -5
-8 -2 -8 8 0 8 7 28 11 44 10 23 -2 29 -7 27 -20 -2 -13 1 -16 10 -10 19 12
39 14 32 3 -3 -5 -10 -6 -16 -3 -6 4 -8 2 -5 -4 4 -5 16 -8 27 -5 12 3 20 0
20 -7 0 -9 4 -9 17 1 15 12 16 12 10 -3 -3 -10 -3 -17 1 -17 4 1 9 1 12 -1 3
-1 22 -4 43 -6 27 -3 37 -1 32 7 -6 8 -2 8 13 0 12 -6 24 -17 28 -24 5 -9 4
-9 -7 1 -16 15 -29 16 -29 1 0 -5 4 -8 9 -4 5 3 13 0 16 -5 5 -8 13 -6 24 4
20 18 32 12 23 -12 -5 -15 -4 -16 13 -2 17 14 18 13 12 -4 -6 -14 -4 -16 5 -9
15 11 55 9 66 -2 4 -5 0 -6 -9 -3 -9 4 -22 2 -30 -3 -12 -8 -12 -10 1 -8 35 3
71 -2 66 -10 -5 -8 47 -6 72 4 7 3 11 1 8 -3 -2 -4 -1 -14 5 -22 6 -11 9 -11
9 -2 0 10 3 10 14 0 8 -7 12 -16 10 -20 -9 -15 30 0 41 16 12 16 14 16 21 -6
4 -13 7 -26 6 -30 -1 -5 3 -8 9 -8 6 0 9 7 6 15 -9 21 9 27 24 8 11 -13 11
-15 1 -9 -11 7 -11 4 -1 -12 l13 -21 18 21 c10 12 18 16 18 10 0 -6 6 -9 14
-6 8 3 17 0 21 -5 3 -6 12 -8 18 -4 7 4 6 -1 -2 -10 -8 -10 -11 -20 -7 -24 3
-3 6 -1 6 5 0 16 17 15 23 0 2 -7 3 -5 2 4 -2 10 2 21 7 25 7 3 8 1 4 -5 -4
-7 -2 -12 4 -12 6 0 8 -5 4 -12 -6 -10 -4 -10 8 0 12 9 18 10 23 2 4 -6 13 -9
21 -6 7 3 16 2 18 -3 8 -12 -27 -10 -44 3 -13 10 -13 9 -1 -6 7 -10 22 -16 35
-14 11 3 21 5 21 6 0 1 8 3 18 5 9 2 17 -1 17 -7 0 -6 8 -7 17 -3 14 5 15 3 7
-5 -9 -9 -18 -9 -35 0 -23 12 -23 12 -6 -6 17 -18 19 -18 47 -2 19 11 29 13
27 5 -1 -7 7 -12 17 -12 11 0 21 -7 23 -15 4 -13 3 -13 -7 0 -10 13 -11 13 -7
0 3 -13 32 -15 181 -16 140 -1 176 1 172 12 -4 9 3 10 26 4 23 -7 27 -6 19 3
-8 10 -2 12 26 9 23 -3 33 -1 29 6 -9 15 16 21 38 10 12 -7 16 -7 12 0 -3 6
-2 13 4 17 5 3 10 1 10 -5 0 -6 5 -8 10 -5 6 4 8 10 5 15 -3 4 3 6 14 3 10 -3
22 0 25 6 4 6 13 11 19 11 7 0 6 -4 -3 -10 -12 -7 -10 -9 7 -7 12 0 19 5 16
11 -4 5 1 7 12 2 16 -6 16 -4 4 11 -9 11 -9 14 -2 9 7 -4 22 -2 34 5 15 8 19
8 15 0 -10 -16 7 -14 30 4 10 8 24 14 29 15 6 0 3 -5 -5 -10 -8 -5 -10 -10 -4
-10 6 0 18 10 26 22 13 20 17 21 32 9 14 -12 20 -9 18 10 -1 4 8 4 20 1 13 -3
19 -1 15 5 -3 5 0 10 8 10 8 0 11 -5 8 -10 -4 -6 4 -3 18 6 27 19 43 22 34 6
-4 -6 2 -5 13 2 12 7 18 18 16 24 -3 5 2 1 10 -9 14 -17 16 -18 16 -3 0 9 5
18 10 18 6 1 16 2 23 3 6 1 15 -3 19 -9 5 -6 8 -2 8 9 0 15 3 16 15 6 13 -11
14 -10 9 6 -6 15 -4 17 6 7 14 -12 60 2 60 19 0 5 5 6 10 3 6 -4 8 -12 4 -18
-3 -7 3 -2 14 10 18 20 20 21 37 5 10 -9 15 -11 11 -4 -4 6 -3 12 2 12 4 0 18
9 30 20 12 12 22 16 22 9 0 -8 4 -9 13 0 10 8 17 7 25 -1 9 -9 14 -5 21 13 5
13 10 18 10 11 1 -9 9 -8 29 5 24 15 25 16 14 1 -12 -14 -10 -16 8 -11 12 3
19 11 17 18 -3 6 1 12 9 12 7 0 10 -5 7 -11 -4 -6 1 -5 10 2 9 8 22 10 28 6 9
-5 10 -2 6 9 -4 11 -2 14 7 11 8 -3 17 -1 20 5 4 6 18 6 37 1 25 -8 29 -7 19
4 -8 11 -7 14 7 12 10 0 21 -5 25 -11 4 -6 8 -2 8 8 0 19 11 22 27 6 8 -8 13
-7 18 2 5 8 4 10 -3 5 -7 -4 -12 -3 -12 2 0 5 9 12 19 15 15 3 18 1 14 -12 -3
-10 2 -8 14 7 15 18 21 20 32 10 8 -8 11 -8 8 -2 -4 7 0 15 9 18 8 3 12 2 9
-4 -3 -6 1 -7 9 -4 10 4 16 1 16 -7 0 -7 3 -9 6 -6 4 4 2 12 -4 20 -9 10 -5
13 16 12 15 0 33 6 41 13 9 9 17 10 24 3 7 -7 15 -5 24 7 10 13 12 13 8 2 -4
-11 1 -16 14 -16 15 0 17 3 9 13 -15 19 -2 16 17 -4 13 -12 19 -13 25 -4 5 10
9 9 13 -2 4 -10 16 -13 37 -11 27 3 32 1 28 -14 -4 -15 0 -18 24 -17 16 1 34
8 39 16 7 11 9 11 9 1 0 -7 5 -10 12 -6 7 4 8 3 4 -5 -4 -6 -12 -9 -17 -6 -5
3 -6 -1 -3 -9 5 -14 8 -14 21 -1 16 16 33 12 33 -8 0 -7 -4 -6 -10 3 -5 8 -10
10 -10 4 0 -21 14 -24 33 -7 11 10 17 13 14 7 -4 -7 0 -15 9 -18 8 -3 12 -2 9
4 -4 6 1 7 11 3 13 -5 15 -3 9 8 -5 8 -5 11 1 6 5 -5 9 -14 9 -20 0 -7 10 -12
23 -11 19 0 26 -6 24 -26 0 -3 17 -4 39 -2 25 3 39 0 39 -8 0 -6 4 -9 9 -6 5
4 11 1 13 -5 2 -7 17 -13 33 -14 17 -2 33 -3 37 -4 4 -1 14 -8 22 -17 9 -8 16
-11 16 -5 0 6 5 11 11 11 5 0 7 -5 4 -10 -4 -6 -3 -10 2 -9 4 1 10 0 13 -1 15
-6 48 -5 45 1 -3 4 4 5 15 2 11 -3 20 -12 20 -20 0 -8 5 -11 10 -8 6 4 7 11 4
17 -4 7 -2 8 5 4 6 -4 9 -11 6 -16 -3 -5 0 -12 6 -16 8 -4 9 -3 5 4 -9 16 7
15 22 0 9 -9 10 -6 7 12 -2 12 -1 19 3 16 4 -4 8 -12 8 -17 4 -30 6 -32 14
-14 l9 20 0 -20 c1 -17 3 -17 11 -5 8 13 10 12 10 -2 0 -10 -5 -18 -12 -18 -6
0 -8 -3 -5 -7 4 -3 15 1 25 10 11 10 22 13 31 7 8 -4 21 -6 30 -3 13 4 13 3 2
-5 -10 -7 -5 -11 18 -14 17 -2 36 0 43 6 7 6 4 1 -7 -12 -18 -22 -18 -23 0
-16 14 6 16 4 10 -6 -5 -9 -4 -11 4 -6 6 4 9 12 6 17 -4 5 -1 9 4 9 6 0 11 -6
11 -13 0 -7 14 -14 31 -15 18 -2 28 2 24 8 -3 6 0 7 10 4 14 -6 14 -8 -2 -20
-16 -13 -15 -13 9 -5 30 11 69 11 62 0 -2 -4 0 -10 6 -14 6 -4 8 -10 5 -15 -3
-5 -1 -11 4 -15 6 -3 8 3 6 15 -2 11 0 20 6 20 5 0 9 -4 9 -10 0 -5 5 -10 11
-10 5 0 7 5 4 11 -4 6 2 5 14 -3 12 -7 21 -17 21 -22 0 -4 8 -2 17 5 15 12 16
12 10 -4 -4 -10 -3 -16 2 -12 5 3 11 2 14 -2 2 -5 3 -3 1 2 -1 6 7 12 17 12
11 1 19 -5 19 -13 0 -9 6 -14 13 -11 6 2 11 10 9 16 -1 7 2 10 8 6 6 -3 8 -10
6 -14 -3 -4 -1 -13 5 -21 7 -12 9 -11 9 5 0 16 2 17 9 6 5 -8 7 -21 4 -30 -3
-10 -2 -12 4 -5 13 17 43 25 37 10 -3 -7 2 -13 10 -13 8 0 13 5 12 11 -2 6 -1
8 1 3 3 -4 9 -5 14 -2 5 4 6 -1 2 -11 -5 -14 -3 -15 14 -5 16 8 24 7 33 -4 10
-12 10 -15 0 -15 -8 0 -10 -3 -7 -7 4 -3 15 1 26 11 16 15 19 15 31 1 11 -13
15 -13 21 -3 6 8 9 9 9 2 0 -7 31 -12 90 -13 78 -2 92 1 110 19 l20 20 0 1718
c0 967 -4 1711 -9 1703 -5 -7 -14 -10 -20 -7 -6 4 -9 12 -6 17 3 5 -2 6 -11 2
-13 -5 -15 -3 -9 8 7 12 6 12 -7 1 -17 -14 -34 -1 -23 18 3 6 -1 7 -9 4 -9 -3
-13 -11 -9 -18 4 -6 -1 -5 -10 3 -9 7 -17 10 -17 6 0 -4 -7 -2 -15 5 -8 6 -19
9 -24 6 -5 -4 -13 -1 -17 5 -4 8 -3 9 4 5 7 -4 12 -2 12 3 0 13 -17 14 -24 2
-4 -5 -16 -4 -30 2 -13 7 -22 16 -18 22 3 5 -2 4 -11 -4 -11 -8 -17 -9 -17 -3
0 6 -6 9 -14 6 -8 -3 -17 0 -21 5 -3 6 -11 9 -16 6 -5 -4 -9 -2 -9 4 0 5 -9 8
-20 6 -11 -2 -26 2 -33 9 -7 7 -20 12 -30 10 -9 -1 -21 5 -27 14 -5 10 -10 12
-10 5 0 -20 -20 -15 -21 5 0 9 -3 12 -5 5 -3 -7 -12 -9 -20 -6 -7 3 -11 10 -7
17 4 6 -1 5 -10 -3 -14 -11 -17 -11 -17 0 0 11 -2 11 -10 -1 -8 -12 -10 -12
-10 -1 0 8 -7 11 -20 8 -10 -3 -19 -2 -18 2 2 19 -4 22 -19 10 -9 -8 -14 -9
-10 -3 4 7 0 15 -9 18 -8 3 -13 2 -10 -3 4 -5 -9 -4 -28 1 -25 8 -33 15 -29
27 3 12 2 11 -7 -2 -9 -14 -15 -16 -25 -7 -8 7 -19 9 -25 5 -7 -4 -14 2 -17
14 -3 12 -13 21 -22 22 -10 0 -11 2 -3 6 6 2 9 9 6 14 -9 15 5 61 16 54 6 -3
7 1 4 10 -4 10 3 29 15 46 12 16 17 29 12 29 -5 0 -11 -6 -14 -12 -3 -7 -4 -3
-4 9 1 12 4 21 7 21 18 -2 21 4 9 19 -8 9 -9 14 -3 10 16 -10 25 18 11 33 -9
10 -9 12 3 8 11 -4 15 2 15 23 1 16 -4 29 -10 29 -5 0 -4 4 4 9 8 5 9 11 3 15
-6 3 -8 15 -5 26 3 11 9 18 13 15 5 -3 7 3 5 12 -2 10 -4 18 -5 18 -1 0 -3 11
-6 24 -4 21 -3 22 13 10 16 -13 17 -12 5 3 -8 9 -11 22 -7 27 4 7 -1 9 -12 5
-17 -5 -17 -5 0 9 12 10 14 16 6 19 -7 2 -13 12 -15 21 -1 9 2 15 7 11 5 -3 9
-1 9 4 0 6 -8 13 -17 17 -17 7 -16 8 2 15 19 8 19 9 1 9 -20 1 -20 1 0 16 13
11 14 14 4 13 -8 -2 -14 3 -13 10 2 6 -2 12 -7 12 -6 0 -10 5 -10 11 0 5 4 8
8 5 5 -3 9 1 9 9 0 8 -4 12 -9 9 -7 -5 -12 18 -9 39 0 4 -5 7 -12 7 -8 0 -7 4
3 10 8 5 10 10 4 10 -7 0 -15 7 -18 16 -5 12 -3 14 7 8 7 -5 5 -2 -5 8 -10 9
-18 22 -18 30 0 8 -6 20 -12 27 -11 10 -9 11 7 6 12 -4 9 0 -7 9 -15 9 -25 23
-24 33 2 10 -5 24 -15 31 -11 7 -19 22 -19 32 0 10 -8 24 -17 29 -13 8 -14 10
-4 11 11 0 10 4 -4 13 -12 9 -15 19 -10 28 8 12 6 12 -8 0 -15 -12 -17 -12
-11 3 4 11 1 16 -11 16 -9 0 -13 5 -10 10 3 6 1 10 -4 10 -6 0 -11 7 -11 15 0
8 -5 15 -11 15 -5 0 -7 4 -4 10 4 6 -1 7 -12 3 -16 -6 -16 -5 -4 10 12 15 12
17 -3 11 -10 -4 -18 0 -22 10 -3 9 -10 13 -15 10 -8 -5 -13 9 -10 28 0 4 -6 5
-14 2 -11 -5 -13 -2 -8 12 4 11 3 15 -4 11 -12 -8 -56 27 -46 37 3 3 -3 6 -15
6 -11 0 -24 5 -28 12 -5 7 -3 8 6 3 8 -5 11 -4 6 3 -4 6 -13 9 -21 5 -8 -3
-15 0 -15 7 0 6 -4 8 -10 5 -5 -3 -10 2 -10 11 0 10 -3 15 -6 11 -8 -8 -63 20
-83 42 -9 9 -12 11 -7 4 6 -10 4 -12 -8 -7 -9 3 -16 10 -16 15 0 5 -3 8 -7 8
-5 -1 -15 -1 -23 0 -12 1 -12 3 -2 9 8 6 3 9 -15 10 -35 1 -55 5 -70 15 -7 5
-19 5 -25 1 -8 -5 -7 0 2 11 14 17 14 18 -9 6 -16 -9 -26 -10 -33 -3 -6 6 -17
8 -26 5 -9 -4 -13 -2 -9 4 4 7 -63 10 -203 11 -153 0 -210 -3 -210 -11 0 -7
-4 -6 -10 3 -6 9 -10 11 -10 3z m214 -186 c-2 -7 4 -13 16 -14 11 -1 20 3 20
8 0 6 -4 7 -10 4 -5 -3 -10 -1 -10 5 0 8 6 9 18 4 9 -4 29 -7 44 -8 15 0 25
-3 22 -7 -2 -4 3 -10 12 -13 8 -3 13 -2 10 2 -3 5 9 6 26 4 21 -3 26 -7 17
-13 -8 -5 -9 -9 -3 -9 6 0 14 3 17 7 4 3 19 8 34 9 21 2 24 1 13 -6 -11 -7
-11 -10 -2 -10 7 0 10 -4 7 -10 -3 -5 -1 -10 4 -10 6 0 11 4 11 9 0 6 9 9 19
8 11 0 17 -5 15 -9 -3 -5 -11 -6 -17 -2 -7 3 -2 -4 11 -15 22 -19 49 -19 63 2
3 5 9 1 12 -8 5 -11 3 -14 -6 -9 -8 5 -9 4 -2 -4 6 -6 23 -14 39 -18 23 -5 27
-4 21 7 -5 8 -4 11 1 6 5 -5 10 -13 10 -18 1 -5 2 -13 3 -19 0 -5 6 -10 12
-10 5 0 7 6 3 13 -5 7 -1 7 12 -3 29 -22 30 -24 12 -17 -10 4 -18 2 -18 -4 0
-7 11 -9 25 -7 13 3 22 2 20 -3 -3 -4 -1 -10 5 -14 5 -3 10 -1 10 4 0 6 5 11
11 11 5 0 8 -4 4 -9 -3 -5 -1 -12 5 -16 6 -4 8 -11 4 -16 -3 -6 2 -9 12 -7 11
2 20 -4 22 -16 3 -11 0 -16 -7 -11 -6 3 -8 11 -5 17 4 7 2 8 -4 4 -18 -11 -1
-37 29 -43 15 -3 30 -12 34 -21 4 -11 2 -12 -8 -4 -10 9 -14 8 -14 -3 0 -7 3
-13 6 -12 16 3 51 -16 51 -29 0 -8 9 -14 20 -14 23 0 26 -10 8 -28 -9 -9 -9
-12 1 -12 11 0 11 -3 0 -17 -11 -15 -11 -16 1 -5 19 16 35 15 21 -2 -14 -17 9
-29 36 -19 11 4 14 3 9 -5 -4 -7 -14 -12 -22 -12 -17 0 -19 -16 -2 -26 6 -4 8
-3 5 3 -3 5 0 10 8 10 10 0 11 -5 4 -19 -16 -29 0 -42 24 -21 19 16 20 16 8 1
-12 -16 -9 -22 9 -20 3 0 6 -7 6 -17 0 -10 -6 -18 -12 -18 -7 0 -10 6 -7 14 3
7 1 13 -4 13 -5 0 -10 -7 -10 -16 0 -18 42 -37 60 -28 7 3 4 -1 -7 -10 -11 -9
-15 -20 -10 -28 6 -9 2 -9 -12 2 -12 9 -15 9 -7 1 6 -7 9 -21 6 -30 -4 -14 -3
-14 6 -1 16 22 32 -6 21 -36 -6 -15 -5 -26 2 -30 6 -4 8 -3 5 3 -3 5 1 10 9
10 10 0 11 -4 4 -11 -6 -6 -4 -16 8 -30 9 -11 12 -16 5 -13 -7 4 -14 -1 -18
-13 -4 -12 -11 -17 -18 -13 -9 5 -9 3 -1 -8 6 -8 10 -22 9 -31 -4 -20 5 -23
23 -8 9 7 9 7 2 -2 -14 -16 -13 -31 2 -22 7 4 8 3 4 -5 -5 -8 -12 -9 -20 -2
-9 7 -11 2 -10 -22 3 -48 3 -49 17 -41 6 4 4 -2 -6 -13 -14 -16 -15 -22 -5
-26 11 -4 10 -7 -1 -18 -8 -8 -11 -9 -8 -3 3 6 0 11 -7 11 -14 0 -15 -64 -1
-88 7 -11 6 -12 -6 -2 -12 10 -15 8 -16 -7 -1 -13 3 -17 15 -13 12 3 13 2 5
-4 -7 -5 -14 -19 -16 -32 -2 -12 -17 -31 -33 -42 -16 -10 -24 -19 -18 -19 5 0
15 5 22 12 7 7 12 8 12 3 -1 -14 -26 -46 -31 -40 -3 2 -5 -5 -6 -16 -2 -18 0
-19 15 -7 15 12 16 11 3 -5 -8 -10 -20 -16 -27 -13 -9 3 -11 0 -7 -11 5 -12 3
-14 -7 -8 -10 6 -11 4 -4 -6 11 -18 14 -40 6 -35 -4 2 -16 -3 -27 -11 -19 -15
-19 -15 5 -9 24 7 24 6 6 -8 -10 -9 -22 -13 -27 -11 -4 3 -10 1 -14 -4 -3 -6
4 -8 16 -6 16 3 18 1 10 -9 -6 -7 -8 -16 -4 -20 4 -4 0 -4 -9 -1 -14 6 -17 2
-15 -19 1 -14 -2 -24 -7 -23 -5 1 -13 -8 -17 -21 -5 -13 -13 -21 -18 -17 -5 3
-12 1 -15 -4 -4 -5 -1 -13 5 -17 8 -4 9 -3 5 4 -5 8 -1 10 10 5 15 -5 15 -7 0
-15 -9 -5 -23 -24 -31 -41 -8 -18 -12 -22 -9 -10 2 12 -1 25 -7 29 -8 4 -9 3
-5 -4 4 -6 2 -21 -4 -32 -8 -15 -8 -20 2 -21 10 0 9 -2 -1 -6 -8 -3 -24 -15
-37 -26 -20 -17 -21 -23 -11 -36 10 -12 9 -13 -2 -6 -11 6 -13 4 -7 -10 5 -15
4 -16 -8 -6 -13 11 -14 9 -10 -13 3 -19 0 -26 -11 -26 -9 0 -13 5 -10 10 3 6
2 10 -4 10 -5 0 -9 -9 -8 -19 0 -11 5 -17 11 -14 5 3 6 1 2 -5 -4 -7 -15 -12
-24 -12 -15 0 -15 -2 -2 -10 8 -5 12 -10 8 -11 -5 -1 -12 -2 -16 -3 -12 -2
-45 -36 -35 -36 5 0 15 6 23 13 8 6 6 2 -4 -10 -10 -13 -23 -20 -27 -17 -5 3
-9 0 -9 -6 0 -6 -4 -9 -9 -6 -5 4 -7 -3 -4 -13 3 -13 -2 -23 -16 -31 -12 -6
-19 -15 -16 -21 4 -5 1 -9 -5 -9 -6 0 -8 -5 -4 -12 6 -10 5 -10 -7 -1 -13 11
-15 9 -15 -9 1 -14 -8 -27 -24 -35 -14 -7 -21 -13 -17 -13 5 0 1 -7 -7 -16 -9
-8 -13 -21 -9 -27 4 -7 -2 -5 -12 3 -17 14 -18 14 -5 -10 7 -14 9 -22 5 -18
-5 5 -14 -1 -22 -12 -8 -11 -22 -20 -31 -20 -12 0 -13 -3 -5 -8 8 -5 2 -12
-18 -21 -16 -7 -26 -17 -23 -23 4 -6 10 -5 16 3 8 11 9 11 5 -1 -2 -8 -11 -14
-20 -12 -12 2 -15 -2 -10 -14 4 -11 2 -15 -4 -11 -6 4 -13 -3 -16 -14 -4 -14
-11 -20 -21 -16 -9 4 -15 3 -15 -1 4 -24 -3 -41 -14 -36 -8 3 -20 -3 -28 -13
-13 -17 -13 -17 5 -3 18 14 19 14 5 -7 -13 -21 -14 -22 -24 -4 -5 10 -17 16
-25 13 -8 -3 -12 -1 -8 3 4 4 -6 18 -23 32 -16 14 -29 31 -29 39 0 8 -7 14
-16 14 -11 0 -14 6 -9 23 5 17 4 19 -4 7 -10 -14 -15 -7 -12 13 1 5 -3 6 -8 3
-5 -3 -14 1 -21 9 -11 13 -10 15 6 10 13 -5 12 -2 -4 7 -12 8 -19 18 -15 23 4
4 1 6 -8 2 -11 -4 -20 5 -29 29 -8 19 -18 34 -22 34 -5 0 -6 -5 -2 -12 4 -7 3
-8 -4 -4 -6 4 -8 14 -5 22 4 10 -2 17 -16 21 -11 3 -18 9 -15 14 3 5 0 9 -5 9
-6 0 -11 5 -11 10 0 6 -12 22 -27 36 -16 14 -21 22 -13 18 8 -3 -1 8 -20 26
-19 18 -27 27 -17 20 15 -11 17 -10 12 3 -4 8 -15 17 -26 20 -13 4 -17 10 -12
23 4 12 3 15 -5 10 -7 -4 -15 0 -19 11 -3 10 -15 26 -25 36 -10 10 -15 23 -12
29 5 8 1 9 -11 4 -16 -6 -16 -4 -4 11 12 15 12 16 -3 11 -10 -4 -19 -1 -22 8
-3 8 -1 12 4 9 6 -3 7 1 4 9 -3 9 -10 13 -15 10 -5 -3 -9 2 -9 11 0 10 -5 13
-12 9 -6 -4 -8 -3 -5 4 9 14 -3 43 -14 36 -5 -3 -9 1 -9 9 0 8 -7 17 -15 20
-8 4 -12 15 -10 26 3 15 0 18 -12 14 -10 -4 -14 -2 -10 4 4 6 1 18 -7 26 -8 8
-12 17 -9 21 4 3 1 6 -5 6 -7 0 -12 9 -12 21 0 11 -4 17 -10 14 -5 -3 -10 1
-10 9 0 25 -2 30 -19 44 -13 11 -13 12 -1 7 13 -6 13 -5 0 7 -8 7 -15 19 -16
26 -2 28 -4 33 -13 28 -5 -3 -12 1 -15 10 -4 10 -2 13 7 9 6 -4 4 0 -5 8 -10
8 -18 22 -18 31 0 9 -6 16 -12 16 -8 0 -9 3 -3 8 12 8 19 36 8 29 -5 -3 -14 1
-21 9 -8 9 -9 14 -2 14 7 0 4 7 -4 16 -19 19 -20 26 -3 43 10 10 9 11 -5 6
-15 -6 -18 -1 -19 21 -1 16 -1 32 0 37 0 4 -4 7 -10 7 -8 0 -7 5 1 15 7 9 10
18 6 22 -3 3 -6 0 -7 -8 0 -8 -4 -4 -9 9 -5 12 -7 29 -4 37 4 9 0 15 -7 15
-11 0 -11 3 1 10 8 5 10 10 5 10 -6 0 -11 9 -11 19 0 11 4 17 8 15 4 -3 8 0 8
5 0 6 -5 11 -10 11 -13 0 -9 32 4 42 6 4 4 13 -3 22 -11 13 -11 16 0 17 11 0
11 2 1 6 -10 4 -9 9 5 19 10 8 14 14 8 13 -23 -3 -26 2 -11 17 13 12 14 20 5
36 -6 12 -7 18 -1 14 5 -3 13 1 16 10 3 8 2 13 -2 10 -5 -3 -9 1 -9 9 0 8 4
12 9 9 5 -4 9 0 7 7 -4 34 2 60 12 53 8 -4 9 1 4 16 -6 18 -4 22 8 17 11 -4
14 -2 10 8 -3 8 -10 12 -16 8 -6 -3 -7 -1 -3 6 4 6 11 9 16 6 9 -6 23 22 24
50 1 11 6 20 13 20 6 0 15 4 20 9 5 5 3 6 -4 2 -7 -4 -13 -2 -13 3 0 6 7 11
15 11 8 0 15 5 15 11 0 5 -4 7 -10 4 -6 -3 -7 1 -4 10 4 9 13 14 22 10 13 -5
13 -3 1 12 -8 9 -9 14 -4 11 6 -3 19 4 30 15 11 11 14 17 7 12 -11 -6 -11 -3
-1 13 10 15 17 18 26 11 9 -8 11 -6 8 11 -3 17 -1 20 13 15 9 -3 13 -3 10 1
-10 9 11 46 21 39 5 -2 11 4 14 15 3 11 13 20 22 20 10 0 13 5 9 12 -4 7 -3 8
5 4 6 -4 14 0 17 8 3 9 11 16 16 16 6 0 17 8 25 18 8 9 12 12 9 6 -3 -6 1 -11
8 -11 8 0 12 7 8 15 -3 10 -1 13 7 8 7 -5 22 2 37 18 14 13 31 23 39 20 7 -3
16 -1 20 5 3 6 15 11 26 11 10 0 19 4 19 9 0 13 27 21 45 15 8 -4 12 -11 8
-17 -3 -6 -1 -7 6 -3 8 6 9 12 2 20 -8 9 -7 13 4 13 8 0 15 -4 15 -9 0 -5 5
-6 10 -3 6 4 7 11 4 17 -4 7 -2 8 5 4 6 -4 20 -2 29 5 12 10 11 7 -3 -11 -15
-19 -16 -21 -3 -11 10 7 24 11 32 8 10 -4 13 -1 9 9 -3 7 0 14 6 14 6 0 11 -4
11 -9 0 -4 12 -6 28 -4 15 2 35 5 44 7 10 1 21 5 24 9 11 11 14 8 8 -6z m311
-67 c-3 -5 -13 -6 -21 -3 -12 4 -13 8 -3 14 15 9 32 2 24 -11z m-1248 -355 c0
-8 -4 -12 -9 -9 -5 3 -6 10 -3 15 9 13 12 11 12 -6z m1676 -60 c-3 -9 -8 -14
-10 -11 -3 3 -2 9 2 15 9 16 15 13 8 -4z m-1743 -219 c0 -2 -7 -7 -16 -10 -8
-3 -12 -2 -9 4 6 10 25 14 25 6z m1830 -66 c0 -5 -5 -10 -11 -10 -5 0 -7 5 -4
10 3 6 8 10 11 10 2 0 4 -4 4 -10z m10 -94 c0 -2 -7 -9 -15 -16 -13 -11 -14
-10 -9 4 5 14 24 23 24 12z m-1849 -49 c-7 -7 -7 -16 2 -26 10 -14 10 -14 -4
-4 -9 7 -20 9 -25 5 -4 -4 -3 0 4 9 6 9 10 18 7 21 -3 2 2 5 10 5 11 0 12 -4
6 -10z m1821 -76 c-5 -3 -8 -14 -6 -24 1 -11 0 -16 -4 -12 -3 3 -7 17 -8 30 0
16 3 22 13 18 8 -3 10 -9 5 -12z m-3988 -222 c-4 -7 6 -10 32 -8 30 3 39 0 38
-12 -1 -8 7 -15 17 -15 10 0 16 4 13 7 -2 4 1 11 7 15 8 4 9 3 5 -4 -6 -11 12
-17 37 -13 4 0 7 -6 7 -14 0 -17 25 -20 35 -5 3 6 12 10 18 9 9 0 9 -2 0 -6
-15 -6 -17 -29 -3 -38 5 -3 7 0 4 9 -4 11 0 13 15 9 11 -3 18 -9 15 -14 -3 -5
0 -9 5 -9 6 0 11 5 11 10 0 6 5 10 11 10 5 0 8 -4 5 -9 -3 -5 1 -12 10 -15 8
-3 12 -2 9 3 -10 18 13 21 26 4 10 -12 10 -14 2 -9 -7 4 -13 2 -13 -3 0 -15
13 -14 29 2 11 10 13 9 8 -4 -4 -13 1 -15 24 -13 20 3 29 -1 29 -11 0 -7 9
-13 19 -12 10 0 18 6 17 12 -2 5 -1 7 1 2 3 -4 9 -5 14 -2 5 4 6 -2 2 -11 -5
-13 -3 -15 8 -9 21 13 48 13 59 0 7 -8 5 -12 -5 -12 -8 0 -12 3 -10 7 2 3 -5
6 -16 6 -10 0 -15 -4 -10 -9 13 -13 45 -16 58 -5 9 7 11 4 8 -11 -2 -12 0 -19
6 -16 5 4 9 14 9 23 1 15 2 15 11 -1 6 -9 14 -15 20 -12 5 4 9 2 9 -3 0 -6 13
-9 29 -8 26 2 28 0 20 -16 -7 -14 -6 -16 6 -12 8 4 15 14 16 23 0 13 2 13 6 1
6 -16 23 -30 36 -30 5 0 6 4 3 8 -2 4 4 8 14 8 18 0 18 -1 2 -20 -16 -18 -16
-19 8 -5 31 16 52 20 44 8 -3 -5 -1 -9 5 -9 6 0 8 -8 5 -17 -3 -10 1 -8 8 5
l14 23 13 -25 c14 -24 25 -27 50 -12 9 6 12 5 8 0 -3 -6 3 -15 13 -22 13 -7
21 -8 25 -2 4 6 2 9 -3 8 -6 -2 -10 0 -11 5 -1 8 3 9 24 1 8 -3 13 -10 10 -14
-3 -4 2 -11 11 -14 10 -4 13 -2 9 7 -4 6 1 3 11 -8 16 -20 16 -20 11 3 -7 29
1 29 12 0 5 -13 17 -23 27 -23 12 0 18 -6 16 -15 -3 -12 -1 -12 9 -3 8 9 16 9
25 3 7 -7 20 -7 37 -1 16 6 29 7 32 1 3 -5 11 -8 18 -6 7 1 9 1 5 -1 -4 -3 -2
-10 5 -17 9 -11 14 -10 24 3 11 14 14 14 22 1 5 -8 8 -17 5 -21 -2 -4 6 -5 18
-2 19 4 20 3 8 -6 -8 -6 -10 -11 -5 -11 6 0 16 5 23 12 9 9 12 9 12 0 0 -8 12
-11 31 -10 19 1 34 -3 39 -13 5 -9 22 -14 44 -14 19 1 33 -2 30 -7 -4 -5 -12
-7 -18 -5 -7 3 -13 -1 -13 -8 0 -7 7 -12 16 -11 12 1 15 -7 14 -27 -1 -15 2
-25 7 -22 5 3 12 0 16 -6 4 -7 3 -9 -4 -5 -19 12 -24 -15 -6 -30 14 -10 15
-13 3 -9 -17 6 -20 -19 -4 -44 4 -8 4 -12 -1 -9 -5 3 -15 -1 -23 -9 -12 -13
-11 -14 7 -9 11 4 23 2 27 -3 3 -6 0 -8 -8 -5 -15 5 -17 -22 -2 -45 4 -8 4
-12 -1 -9 -5 3 -15 -1 -23 -9 -12 -13 -11 -14 7 -9 11 4 23 2 27 -3 3 -6 0 -8
-8 -5 -15 5 -17 -22 -2 -45 4 -8 4 -12 -1 -9 -5 3 -15 -1 -23 -9 -12 -13 -11
-14 7 -9 11 4 23 2 27 -3 3 -6 0 -8 -8 -5 -15 5 -17 -22 -3 -44 4 -7 4 -12 -1
-11 -22 4 -24 -3 -7 -23 10 -12 13 -18 7 -14 -8 4 -13 1 -13 -9 0 -10 5 -14
13 -9 9 6 9 4 0 -7 -15 -16 -17 -43 -3 -34 6 3 10 2 10 -3 0 -6 -7 -13 -16
-16 -8 -3 -12 -2 -9 3 3 5 0 13 -7 17 -7 4 -10 4 -6 -1 4 -4 2 -15 -5 -23 -8
-11 -8 -14 0 -9 14 9 24 -5 28 -39 1 -15 -3 -24 -12 -24 -11 0 -11 -3 -1 -14
7 -8 16 -12 20 -10 4 2 10 -1 14 -8 4 -7 4 -10 -1 -6 -4 4 -15 2 -23 -5 -11
-8 -14 -8 -9 0 4 6 2 15 -5 19 -7 4 -10 4 -6 -1 4 -4 2 -15 -5 -23 -7 -10 -8
-13 -1 -9 7 4 18 -1 25 -10 12 -15 12 -16 -4 -10 -16 6 -16 5 -1 -18 15 -23
15 -25 0 -25 -14 0 -15 -2 -4 -14 7 -8 16 -12 21 -9 4 2 7 0 7 -5 0 -6 -7 -13
-16 -16 -8 -3 -12 -2 -9 3 3 5 0 13 -7 17 -7 4 -10 4 -6 -1 4 -4 2 -15 -5 -23
-8 -11 -8 -14 0 -9 14 9 24 -5 28 -39 1 -15 -3 -24 -12 -24 -11 0 -11 -3 -1
-14 7 -8 16 -12 20 -10 4 2 10 -1 14 -8 4 -7 4 -10 -1 -6 -4 4 -15 2 -23 -5
-11 -8 -14 -8 -9 0 4 6 2 15 -5 19 -7 4 -10 4 -6 -1 4 -4 2 -15 -5 -23 -7 -10
-8 -13 -1 -9 7 4 18 -1 25 -10 12 -15 12 -16 -4 -10 -16 6 -16 5 -1 -18 15
-23 15 -25 0 -25 -9 0 -16 -5 -16 -11 0 -5 5 -7 10 -4 12 7 9 -23 -4 -44 -6
-10 -5 -12 2 -7 11 6 14 1 11 -20 0 -3 8 -12 18 -20 13 -10 14 -13 2 -9 -17 6
-20 -19 -4 -44 4 -8 4 -12 -1 -9 -5 3 -15 -1 -23 -9 -12 -13 -11 -14 7 -9 11
4 23 2 27 -3 3 -6 0 -8 -8 -5 -15 5 -17 -22 -2 -45 4 -8 4 -12 -1 -9 -5 3 -15
-1 -23 -9 -12 -13 -11 -14 7 -9 11 4 23 2 27 -3 3 -6 0 -8 -8 -5 -15 5 -17
-22 -2 -45 4 -8 4 -12 -1 -9 -5 3 -15 -1 -23 -9 -12 -13 -11 -14 7 -9 11 4 23
2 27 -3 3 -6 0 -8 -8 -5 -14 5 -17 -29 -4 -42 4 -4 7 -12 7 -18 0 -6 -5 -4
-10 4 -8 13 -10 12 -11 -5 -1 -11 -1 -26 0 -32 1 -7 -3 -13 -9 -13 -6 0 -8 5
-5 10 3 5 1 10 -4 10 -6 0 -11 -6 -11 -12 -1 -7 -8 -2 -16 12 -8 14 -13 18
-10 9 4 -14 0 -16 -22 -9 -15 4 -26 13 -24 20 2 11 0 11 -11 1 -12 -9 -18 -8
-30 4 -12 11 -17 12 -20 2 -3 -9 -8 -9 -18 2 -12 12 -12 13 0 6 9 -5 12 -4 7
3 -5 9 -13 9 -26 2 -16 -8 -23 -6 -37 9 -11 14 -21 17 -32 11 -16 -8 -56 11
-45 22 2 3 -7 3 -22 0 -16 -3 -25 -1 -21 5 3 5 -9 9 -29 8 -23 -2 -38 3 -44
14 -6 11 -9 12 -10 3 0 -7 -5 -10 -10 -7 -6 4 -8 10 -6 14 3 4 -8 5 -25 3 -16
-2 -29 0 -29 6 0 7 -10 8 -29 2 -19 -5 -33 -4 -41 3 -10 9 -11 9 -5 -2 6 -11
4 -13 -9 -8 -11 5 -15 3 -10 -5 5 -8 2 -9 -9 -5 -17 6 -20 0 -20 -44 0 -9 -6
-16 -13 -16 -10 0 -11 4 -3 13 7 8 6 14 -2 20 -7 4 -9 3 -5 -4 3 -6 -2 -15
-11 -21 -10 -6 -13 -11 -7 -11 7 0 14 -9 17 -21 4 -13 10 -18 18 -13 8 5 10 3
4 -5 -5 -9 -14 -6 -33 11 -15 13 -21 15 -13 6 7 -9 9 -23 5 -29 -4 -7 -3 -9 4
-5 6 3 13 2 17 -4 3 -5 1 -10 -4 -10 -6 0 -11 -5 -11 -11 0 -5 4 -7 10 -4 18
11 51 14 45 4 -4 -5 -11 -7 -16 -4 -5 4 -9 0 -9 -8 0 -13 16 -25 43 -32 4 -2
21 -3 38 -4 16 0 28 -5 25 -10 -7 -11 13 -9 33 3 10 6 12 5 7 -2 -4 -7 -3 -12
3 -12 5 0 11 5 13 12 3 7 7 5 11 -6 4 -9 3 -15 -2 -11 -5 3 -12 1 -15 -4 -7
-11 13 -9 33 4 10 5 16 5 18 -2 3 -7 14 -10 27 -7 14 2 33 -4 46 -16 18 -16
25 -17 32 -8 6 10 8 10 9 -2 1 -8 1 -18 1 -21 -1 -3 5 -6 13 -6 8 0 12 4 10 8
-3 4 3 6 12 5 10 -2 22 2 26 8 5 6 5 1 2 -11 -4 -14 -2 -23 4 -23 6 0 11 8 11
18 1 11 6 7 16 -13 8 -16 12 -22 10 -13 -4 15 -1 16 20 7 14 -5 30 -7 34 -4 5
3 7 -3 5 -15 -2 -11 1 -23 7 -26 6 -4 8 -3 5 2 -3 6 -2 16 2 23 6 10 12 9 25
-5 10 -10 31 -17 47 -17 19 0 28 -5 25 -12 -3 -8 4 -10 20 -7 13 2 24 0 25 -4
4 -53 2 -74 -8 -74 -6 0 -15 -4 -18 -10 -3 -6 1 -7 9 -4 9 3 16 1 16 -6 0 -6
4 -9 9 -5 5 3 13 0 17 -7 4 -7 4 -10 -1 -6 -4 4 -14 3 -22 -3 -10 -9 -10 -15
-2 -25 9 -11 8 -14 -5 -14 -16 0 -16 -1 -1 -17 16 -16 16 -17 -4 -25 -11 -4
-21 -10 -21 -12 0 -3 7 -3 15 0 8 4 15 1 15 -5 0 -6 -6 -11 -12 -11 -8 0 -9
-3 -3 -8 11 -7 15 -22 20 -60 2 -17 -2 -22 -12 -18 -8 3 -12 2 -8 -3 3 -5 2
-11 -2 -14 -5 -2 -2 -2 5 -1 6 2 12 -1 12 -7 0 -6 4 -8 9 -4 5 3 13 1 16 -5 4
-6 1 -9 -5 -8 -7 2 -14 -7 -16 -20 -3 -16 0 -21 8 -16 7 5 8 3 2 -7 -4 -8 -9
-25 -10 -37 0 -13 -7 -28 -15 -33 -8 -5 -9 -9 -3 -9 6 0 11 -6 12 -12 0 -7 3
-25 5 -40 3 -19 0 -28 -9 -28 -7 0 -16 -4 -19 -10 -3 -6 1 -7 9 -4 9 3 16 1
16 -6 0 -6 4 -9 9 -5 5 3 13 0 17 -7 4 -7 4 -10 -1 -6 -4 4 -14 3 -22 -3 -10
-9 -10 -15 -2 -25 9 -11 8 -14 -5 -14 -9 0 -16 -5 -16 -11 0 -5 4 -8 9 -5 5 3
11 -1 15 -9 3 -8 1 -15 -5 -15 -6 0 -7 -4 -4 -10 3 -5 3 -16 -2 -22 -11 -19
-13 -39 -2 -32 5 3 9 2 10 -3 0 -4 2 -18 3 -31 2 -15 -2 -21 -10 -18 -11 4
-11 1 -2 -14 7 -10 15 -17 19 -14 4 2 11 -1 15 -8 4 -7 4 -10 -1 -6 -4 4 -15
2 -23 -5 -13 -10 -14 -9 -7 3 4 8 4 12 0 7 -12 -10 -16 -39 -5 -32 5 3 11 1
15 -5 3 -5 -1 -10 -9 -10 -8 0 -18 -4 -21 -10 -3 -5 0 -7 8 -4 8 3 17 -2 21
-12 5 -12 2 -15 -10 -10 -14 5 -15 4 -4 -9 9 -10 9 -19 2 -28 -7 -8 -6 -18 4
-31 19 -27 18 -45 -1 -20 -14 18 -15 17 -4 -8 7 -15 16 -25 22 -21 6 4 7 1 1
-8 -4 -8 -9 -25 -10 -37 0 -13 -7 -28 -15 -33 -8 -5 -9 -9 -3 -9 6 0 11 -6 12
-12 0 -7 3 -25 5 -40 3 -19 0 -28 -9 -28 -7 0 -16 -4 -19 -10 -3 -6 1 -7 9 -4
9 3 16 1 16 -6 0 -6 4 -9 9 -5 5 3 13 0 17 -7 4 -7 4 -10 -1 -6 -4 4 -14 3
-22 -3 -10 -9 -10 -15 -2 -25 9 -11 8 -14 -5 -14 -16 0 -16 -1 0 -17 15 -16
15 -17 -2 -24 -11 -4 -13 -8 -6 -8 19 -1 14 -21 -5 -22 -12 0 -13 -2 -5 -6 7
-3 19 1 27 7 10 8 15 9 15 2 0 -6 -10 -14 -22 -18 -19 -6 -20 -7 -4 -16 16 -9
15 -11 -5 -29 -16 -14 -26 -16 -40 -8 -11 5 -19 6 -19 2 -1 -4 -8 3 -16 17 -8
14 -13 18 -11 9 4 -12 0 -15 -19 -11 -13 2 -26 13 -29 23 -6 17 -8 17 -21 4
-14 -14 -44 -11 -44 5 0 5 -11 7 -25 5 -17 -1 -25 3 -26 14 0 11 -2 12 -6 3
-4 -10 -9 -9 -20 5 -8 10 -12 13 -9 8 2 -6 -4 -11 -14 -11 -15 0 -16 3 -8 14
9 10 8 12 -3 10 -8 -2 -17 -7 -21 -13 -5 -6 -8 -6 -8 1 0 7 -7 15 -16 18 -9 4
-13 2 -8 -5 4 -7 0 -7 -15 1 -12 6 -19 15 -17 19 3 4 -1 8 -8 8 -8 0 -12 -6
-9 -14 4 -10 -1 -10 -23 2 -15 7 -32 11 -38 8 -6 -4 -6 0 1 8 10 12 8 15 -7
15 -10 0 -16 -4 -14 -8 3 -4 0 -8 -5 -8 -6 0 -11 4 -11 8 0 7 -19 12 -62 15
-14 1 -15 4 -5 16 10 12 9 13 -10 2 -19 -10 -23 -9 -23 4 0 8 -5 15 -11 15 -5
0 -8 -4 -4 -9 3 -6 -8 -6 -27 0 -18 6 -44 12 -58 15 -13 3 -29 9 -36 15 -6 5
-26 11 -45 13 -19 2 -33 8 -32 14 1 5 -6 8 -16 5 -11 -3 -31 3 -45 12 -16 10
-26 13 -26 6 0 -6 -9 -2 -20 9 -11 11 -26 20 -32 20 -7 -1 -2 -8 12 -16 17
-11 19 -13 5 -9 -11 4 -25 8 -31 9 -7 1 -20 8 -30 16 -16 13 -17 13 -9 0 8
-13 6 -13 -8 -2 -9 8 -22 10 -29 6 -8 -5 -8 -1 2 11 14 17 14 18 -8 6 -18 -9
-26 -9 -42 2 -11 8 -17 18 -12 23 4 4 -1 3 -10 -4 -14 -11 -24 -10 -57 7 -23
10 -38 14 -34 9 4 -7 1 -8 -8 -2 -14 9 -19 10 -40 13 -5 0 -7 7 -3 14 6 9 4 9
-8 -1 -11 -9 -18 -10 -23 -2 -3 6 -11 7 -17 4 -7 -5 -8 -2 -3 6 6 9 2 10 -15
5 -17 -5 -21 -4 -15 6 6 9 3 11 -9 6 -9 -4 -28 0 -41 9 -18 12 -24 12 -28 2
-3 -7 -5 -2 -4 12 1 14 7 28 12 32 6 5 5 8 -2 8 -7 0 -13 7 -13 15 0 8 6 15
13 16 9 0 9 2 -1 6 -10 4 -10 8 0 21 10 12 10 14 1 8 -16 -9 -17 6 -1 22 9 9
9 12 -1 12 -11 0 -11 3 0 17 10 11 10 14 1 9 -7 -4 -12 -1 -12 9 0 9 4 14 9
11 5 -4 8 2 6 11 -2 10 -4 18 -5 18 -9 0 -6 71 3 77 9 6 9 8 0 8 -7 0 -13 5
-13 11 0 5 4 8 8 5 5 -3 9 2 9 10 0 9 -6 13 -16 9 -11 -4 -10 -1 4 15 14 16
16 23 7 32 -15 15 -16 32 -2 23 6 -3 10 -1 10 4 0 6 -4 11 -8 11 -4 0 -9 15
-10 32 -2 24 0 29 8 18 7 -12 9 -10 7 8 -1 15 -6 21 -16 17 -11 -4 -10 -1 3
14 11 12 15 25 10 33 -12 18 -17 61 -7 55 5 -3 9 7 8 23 0 15 -3 26 -7 23 -5
-2 -8 3 -8 12 0 9 4 14 9 11 5 -4 8 2 6 11 -2 10 -4 18 -5 18 -9 0 -6 71 3 77
9 6 9 8 0 8 -7 0 -13 10 -13 23 0 17 2 19 10 7 7 -12 9 -10 7 8 -1 15 -6 21
-16 17 -13 -5 -12 -3 1 12 20 24 20 56 -1 48 -13 -5 -13 -4 1 12 16 19 21 56
6 47 -13 -8 -10 10 4 25 10 11 10 14 1 18 -17 6 -17 33 0 34 9 0 9 2 -1 6 -10
4 -10 8 0 21 10 12 10 14 0 8 -15 -9 -16 6 0 22 9 9 9 12 -1 12 -11 0 -11 3 0
17 10 11 10 14 2 9 -8 -4 -13 -1 -13 9 0 9 4 14 9 11 5 -4 8 2 6 11 -2 10 -4
18 -5 18 -9 0 -6 71 3 77 9 6 9 8 0 8 -7 0 -13 5 -13 11 0 5 4 8 8 5 5 -3 9 2
9 10 0 9 -6 13 -16 9 -13 -5 -13 -4 1 12 20 24 20 56 -1 48 -11 -3 -10 0 3 10
11 8 15 15 9 15 -7 0 -11 8 -10 18 1 23 37 27 38 4 0 -14 2 -13 9 3 6 14 9 16
10 5 2 -8 2 -18 2 -21 -1 -3 6 -6 13 -6 11 0 12 4 4 13 -7 8 -6 14 2 20 8 4 9
3 5 -4 -5 -8 2 -11 22 -8 18 2 29 -2 29 -10 0 -9 -5 -10 -19 -3 -12 6 -18 6
-18 -1 0 -10 5 -11 53 -13 26 -1 47 -18 39 -31 -3 -5 0 -6 7 -2 7 5 17 1 25
-9 11 -15 12 -15 12 4 0 11 -3 18 -7 16 -3 -3 -14 1 -24 9 -15 11 -16 13 -1
13 9 0 16 -4 16 -9 0 -4 6 -7 13 -6 6 2 11 -3 9 -11 -3 -12 -1 -12 14 0 12 9
15 9 10 2 -4 -7 -2 -13 3 -13 6 0 11 6 11 13 0 8 3 9 8 1 4 -6 15 -10 25 -8
10 1 21 -4 24 -12 3 -8 9 -11 14 -8 5 3 9 2 8 -3 -4 -22 2 -25 16 -7 14 19 14
18 10 -3 -3 -19 8 -23 35 -13 3 1 8 2 13 1 4 0 7 4 7 11 0 6 6 4 13 -7 9 -11
19 -15 27 -10 8 5 11 4 6 -3 -3 -6 -2 -13 4 -17 5 -3 10 -1 10 4 0 6 5 11 10
11 7 0 7 -8 -1 -22 l-12 -23 25 23 c13 12 28 22 34 22 5 0 5 -4 -1 -8 -5 -4
-17 -16 -25 -27 -14 -19 -14 -20 6 -2 11 9 24 14 27 10 4 -3 7 -1 7 6 0 7 6
11 13 8 6 -2 18 3 25 12 11 13 12 13 7 1 -4 -9 -1 -8 8 3 9 10 19 18 24 18 4
0 7 7 5 14 -2 10 3 13 13 9 17 -7 17 16 0 28 -6 5 -5 8 3 8 9 0 10 5 2 19 -7
14 -6 21 3 24 7 3 5 6 -5 6 -9 1 -19 10 -23 21 -3 11 -12 19 -18 17 -7 -1 -11
4 -9 12 2 11 0 12 -11 3 -19 -16 -30 -3 -15 17 9 11 6 11 -8 -2 -20 -17 -23
-17 -38 -2 -12 12 -16 13 -16 3 0 -10 -2 -10 -8 0 -5 7 -23 14 -40 15 -18 1
-34 7 -36 14 -3 6 -13 9 -24 6 -12 -3 -22 2 -26 12 -5 15 -9 15 -23 4 -15 -12
-16 -12 -10 5 6 16 5 17 -8 6 -12 -10 -15 -10 -16 1 0 10 -2 11 -6 1 -3 -8
-10 -5 -22 10 -14 16 -20 18 -26 8 -5 -8 -4 -11 3 -6 6 3 13 2 16 -3 5 -7 -22
-8 -31 -1 -2 2 -7 4 -13 5 -5 1 -13 4 -17 5 -12 4 -27 8 -41 9 -7 0 -10 6 -7
11 7 11 7 11 -50 14 -33 2 -40 5 -37 21 2 15 1 17 -7 6 -11 -17 -49 -9 -81 19
-20 17 -21 22 -9 37 9 11 10 14 2 9 -17 -9 -17 6 0 23 6 8 7 11 1 8 -7 -4 -11
6 -12 25 -1 23 2 28 8 18 7 -11 9 -9 7 8 -1 15 -6 21 -16 17 -13 -5 -12 -3 1
12 20 24 20 56 -1 48 -13 -5 -13 -4 1 12 16 19 21 56 6 47 -13 -8 -10 10 5 25
10 11 10 14 0 18 -17 6 -17 33 0 34 9 0 9 2 -1 6 -10 4 -10 8 0 21 10 12 10
14 1 8 -16 -9 -17 6 -1 22 9 9 9 12 -1 12 -11 0 -11 3 0 17 10 11 10 14 2 9
-8 -4 -13 -1 -13 9 0 9 4 14 9 11 5 -4 8 2 6 11 -2 10 -4 18 -5 18 -9 0 -6 71
3 77 9 6 9 8 0 8 -7 0 -13 5 -13 11 0 5 4 8 8 5 5 -3 9 2 9 10 0 9 -6 13 -16
9 -11 -4 -10 -1 4 15 14 16 16 23 7 32 -15 15 -16 32 -2 23 6 -3 10 -1 10 4 0
6 -4 11 -8 11 -4 0 -9 15 -10 33 -2 23 0 28 8 17 7 -12 9 -10 7 8 -1 15 -6 21
-16 17 -11 -4 -10 -1 3 14 11 12 15 25 10 33 -12 18 -17 61 -7 55 5 -3 9 7 8
23 0 15 -3 26 -7 23 -5 -2 -8 3 -8 12 0 9 4 14 9 11 5 -4 8 2 6 11 -2 10 -4
18 -5 18 -9 0 -6 71 3 77 9 6 9 8 0 8 -7 0 -13 10 -13 23 0 17 2 19 10 7 7
-12 9 -10 7 8 -1 15 -6 21 -16 17 -13 -5 -12 -3 1 12 20 24 20 56 -1 48 -13
-5 -13 -4 1 12 20 24 20 56 -1 48 -13 -5 -13 -4 1 12 20 24 20 56 -1 48 -11
-4 -10 -1 4 15 14 15 16 23 7 32 -9 9 -9 15 1 27 6 8 7 12 2 9 -6 -4 -11 2
-11 12 0 10 5 16 10 13 5 -4 7 1 3 9 -3 9 -3 19 0 22 10 10 15 7 7 -5z m2306
-225 c0 5 6 3 13 -3 8 -6 16 -9 19 -6 2 3 5 -2 5 -10 0 -8 -5 -11 -11 -8 -6 3
-8 3 -4 -2 4 -4 2 -15 -4 -24 -10 -13 -10 -14 2 -3 16 14 46 16 54 4 3 -5 -4
-8 -16 -8 -12 1 -22 -5 -24 -12 -1 -7 0 -8 2 -3 3 6 12 7 20 4 12 -4 12 -8 -3
-20 -10 -8 -12 -12 -5 -8 6 3 17 3 24 -1 8 -5 6 -10 -8 -15 -17 -7 -17 -8 4
-8 12 -1 22 -5 22 -11 0 -5 7 -10 15 -10 8 0 16 -4 16 -10 1 -5 3 -14 4 -20 1
-5 3 -19 4 -30 0 -11 6 -20 12 -20 5 0 7 5 4 10 -3 6 -1 10 4 10 13 0 13 -2 1
-35 -7 -17 -7 -24 0 -20 6 3 13 -1 16 -9 3 -9 10 -13 15 -10 5 3 9 -2 9 -11 0
-9 -4 -14 -9 -11 -20 13 -3 -25 17 -40 12 -8 19 -20 16 -26 -4 -7 -2 -8 5 -4
6 4 9 11 6 16 -7 11 22 7 32 -5 4 -4 3 -5 -3 -2 -16 9 -27 -22 -14 -38 5 -6 6
-16 2 -20 -4 -5 -2 -5 5 -2 6 4 20 -8 32 -28 14 -25 25 -33 37 -28 14 5 15 3
4 -18 -12 -21 -11 -22 1 -12 18 15 38 3 44 -25 5 -26 35 -61 35 -41 0 7 3 9 6
6 4 -4 1 -13 -6 -22 -8 -10 -9 -15 -1 -15 6 0 11 -6 11 -14 0 -8 7 -17 16 -20
8 -3 12 -11 9 -16 -4 -6 -1 -9 7 -8 7 2 12 -3 10 -10 -1 -8 2 -11 8 -7 8 5 7
11 -1 21 -8 10 -8 14 0 14 11 0 13 -7 14 -47 0 -12 3 -22 6 -21 19 2 22 -4 10
-19 -13 -15 -12 -15 7 -3 13 8 20 20 16 32 -2 10 0 18 4 18 5 0 10 -15 11 -32
4 -51 6 -58 15 -52 5 4 8 -2 6 -12 -2 -11 3 -19 12 -19 9 0 14 -8 12 -20 -2
-16 -1 -17 7 -6 6 10 3 23 -12 43 -11 15 -18 31 -14 34 4 4 10 -2 14 -12 4
-10 13 -25 20 -32 7 -8 11 -18 8 -23 -4 -5 -1 -9 6 -9 8 0 8 -4 -1 -15 -11
-13 -10 -14 5 -9 14 6 16 4 10 -7 -7 -11 -6 -12 6 -2 13 10 16 10 17 -2 1 -8
3 -21 4 -28 1 -8 7 -14 14 -14 7 0 11 4 9 8 -3 4 2 10 11 13 8 3 12 2 9 -4 -3
-6 -3 -16 2 -22 4 -7 8 -22 8 -32 0 -12 8 -20 24 -23 33 -5 36 -10 21 -28 -7
-9 -9 -15 -4 -14 21 4 26 -2 14 -16 -11 -13 -10 -14 6 -8 17 6 18 5 4 -12 -12
-15 -12 -17 -1 -10 11 6 13 4 8 -7 -3 -9 -1 -20 5 -26 6 -6 6 -12 -3 -17 -8
-5 -10 -4 -5 3 4 7 2 12 -4 12 -7 0 -10 -6 -7 -14 3 -7 0 -19 -6 -26 -9 -10
-9 -11 2 -5 9 5 12 3 9 -6 -3 -8 -10 -13 -16 -12 -6 1 -6 -6 1 -22 7 -13 16
-21 22 -18 5 2 1 -2 -9 -11 -10 -8 -23 -13 -27 -10 -5 3 -9 0 -9 -7 0 -6 -8
-9 -20 -6 -11 3 -18 2 -15 -3 3 -4 -2 -11 -11 -14 -10 -4 -13 -2 -8 7 4 6 -3
3 -16 -8 -13 -11 -20 -15 -17 -8 4 6 3 15 -3 18 -6 4 -10 3 -9 -2 3 -20 -2
-29 -20 -29 -11 0 -17 5 -15 11 3 5 -1 2 -9 -8 -15 -18 -16 -18 -27 0 -8 12
-10 13 -7 2 3 -8 -3 -21 -14 -27 -16 -10 -17 -9 -12 6 6 15 5 15 -10 4 -9 -8
-21 -11 -26 -7 -7 4 -8 -1 -4 -12 6 -16 5 -16 -10 -4 -15 12 -21 9 -18 -11 0
-5 -4 -8 -9 -8 -6 0 -10 6 -10 13 0 8 -3 9 -8 1 -4 -6 -15 -10 -25 -8 -10 1
-14 -2 -10 -8 4 -7 -2 -9 -15 -6 -16 5 -22 2 -22 -10 0 -14 -2 -14 -9 -3 -6 9
-11 10 -15 2 -10 -15 -29 -14 -21 2 4 6 0 4 -8 -5 -8 -10 -17 -15 -20 -11 -4
3 -7 1 -7 -6 0 -8 -7 -11 -15 -7 -8 3 -15 0 -15 -7 0 -9 -3 -8 -9 1 -6 11 -11
10 -25 -3 -9 -9 -16 -12 -16 -5 0 7 -6 5 -16 -4 -18 -19 -38 -21 -28 -3 6 9 5
9 -8 0 -8 -7 -19 -9 -23 -5 -5 4 -6 0 -2 -10 4 -11 1 -15 -11 -13 -9 1 -16 8
-15 14 4 16 -2 14 -18 -6 -12 -15 -12 -16 1 -8 8 4 12 4 7 0 -4 -5 -16 -10
-27 -12 -38 -6 -45 -8 -52 -18 -5 -6 -8 -4 -8 4 0 11 -4 9 -15 -5 -15 -19 -15
-19 -9 1 6 18 5 18 -15 -2 -12 -13 -27 -23 -34 -23 -8 0 -7 4 3 11 12 9 12 10
-3 5 -10 -3 -21 -6 -23 -6 -2 0 -4 -7 -4 -16 0 -8 -5 -12 -10 -9 -6 4 -7 12
-4 18 4 7 -5 1 -21 -13 -16 -14 -25 -19 -21 -12 4 6 2 12 -3 12 -6 0 -11 -5
-11 -11 0 -5 -4 -7 -10 -4 -5 3 -10 0 -11 -7 0 -7 -4 -4 -9 7 -8 19 -9 19 -9
1 -1 -15 -4 -16 -16 -6 -13 11 -14 10 -9 -5 5 -12 4 -16 -4 -11 -6 4 -22 0
-36 -9 -18 -12 -26 -13 -32 -4 -5 9 -11 7 -21 -6 -9 -13 -13 -14 -13 -5 0 9
-5 7 -15 -6 -15 -19 -15 -19 -9 1 5 17 2 16 -15 -5 -14 -17 -21 -20 -21 -10 0
13 -2 13 -9 1 -5 -8 -17 -16 -25 -17 -9 -1 -14 2 -11 6 3 5 0 12 -6 16 -8 4
-9 3 -5 -4 4 -7 2 -12 -4 -12 -6 0 -9 -4 -5 -9 3 -6 -4 -8 -15 -6 -11 2 -20 0
-20 -5 0 -4 -9 -6 -20 -3 -11 3 -20 0 -20 -6 0 -6 -11 -11 -25 -11 -14 0 -25
-6 -25 -12 0 -9 -4 -8 -10 2 -9 13 -10 13 -10 0 0 -13 -1 -13 -10 0 -9 14 -15
7 -11 -14 1 -5 -4 -4 -12 2 -8 7 -16 10 -18 8 -2 -2 -5 10 -5 27 -1 19 5 37
15 44 13 10 13 12 1 8 -12 -4 -15 5 -15 44 0 39 3 47 15 43 9 -2 6 2 -5 11
-15 13 -16 16 -5 17 13 0 13 1 0 10 -13 8 -13 10 -1 10 12 0 12 3 3 12 -19 19
-14 32 6 17 14 -11 13 -10 -2 9 -11 12 -14 22 -8 22 7 0 12 5 12 11 0 5 -4 7
-10 4 -17 -11 -11 7 8 21 12 10 12 12 2 9 -12 -4 -15 4 -16 34 0 25 4 37 10
33 6 -3 4 3 -4 13 -14 17 -13 18 4 11 19 -7 19 -6 1 14 -14 15 -15 20 -4 21
10 0 11 2 2 6 -20 7 -15 23 5 16 14 -5 13 -3 -3 10 -11 10 -15 17 -7 17 10 0
10 4 0 20 -11 16 -9 22 7 35 11 8 13 13 5 10 -12 -4 -15 5 -15 44 0 39 3 47
15 43 9 -2 6 2 -5 11 -15 13 -16 16 -5 17 13 0 13 1 0 10 -13 8 -13 10 -1 10
12 0 12 3 3 12 -19 19 -14 32 6 17 14 -11 13 -10 -2 9 -11 12 -14 22 -8 22 7
0 12 5 12 11 0 5 -4 7 -10 4 -17 -11 -11 7 8 21 12 10 12 12 2 9 -12 -4 -15 4
-16 34 0 25 4 37 10 33 6 -3 4 3 -4 13 -14 17 -13 18 4 11 19 -7 19 -6 1 14
-14 15 -15 20 -4 21 10 0 11 2 2 6 -20 7 -15 23 5 16 14 -5 13 -3 -3 10 -11
10 -15 17 -7 17 10 0 10 4 0 20 -11 16 -9 22 7 35 11 8 13 13 5 10 -12 -4 -15
5 -15 44 0 39 3 47 15 43 9 -2 6 2 -5 11 -15 13 -16 16 -5 17 13 0 13 1 0 10
-13 8 -13 10 0 10 11 0 11 3 2 12 -19 19 -14 32 6 17 14 -11 13 -10 -2 9 -11
12 -14 22 -8 22 7 0 12 5 12 11 0 5 -4 7 -10 4 -17 -11 -11 7 8 21 13 11 13
13 1 9 -12 -5 -15 3 -15 37 1 24 7 48 15 54 11 9 12 12 1 19 -9 5 -11 4 -6 -3
4 -7 2 -12 -3 -12 -13 0 -13 2 -1 34 5 14 17 26 25 26 9 0 23 7 31 15 12 11
20 12 35 5 14 -8 19 -8 17 2 -2 7 8 14 22 16 14 2 32 9 40 15 13 10 13 10 2
-5 -11 -13 -11 -18 0 -24 7 -4 10 -4 6 1 -11 12 20 38 38 31 8 -3 17 1 20 8 3
8 13 17 21 20 12 5 13 4 5 -7 -9 -10 -8 -14 3 -14 8 0 15 7 15 16 0 14 2 14
10 1 8 -13 10 -13 10 1 0 9 6 16 13 17 6 0 23 4 36 8 16 5 22 4 17 -4 -3 -6
-2 -14 4 -17 6 -4 9 -1 8 7 -2 7 3 12 11 10 9 -2 11 3 7 15 -6 14 -5 15 5 6
10 -10 15 -9 24 4 10 13 14 13 20 3 6 -9 4 -11 -5 -5 -9 6 -11 4 -6 -4 6 -9
13 -8 27 5 10 9 25 14 33 11 9 -4 18 -1 22 5 5 7 2 8 -7 3 -12 -8 -12 -6 0 8
14 18 26 23 17 8 -6 -10 24 -25 32 -16 3 3 0 5 -6 5 -7 0 -12 4 -12 9 0 5 10
7 22 3 16 -4 19 -2 13 9 -8 12 -6 12 8 0 15 -12 17 -11 17 3 0 20 9 20 31 0
13 -12 19 -12 25 -3 4 8 3 10 -4 5 -8 -5 -10 -1 -5 9 5 13 7 14 14 3 5 -7 9
-9 9 -4z m1737 4 c-13 -10 -14 -17 -6 -28 9 -13 10 -13 6 1 -4 13 2 18 23 21
22 3 27 1 20 -7 -7 -8 -5 -12 5 -12 8 0 15 7 16 16 0 14 1 14 6 1 10 -26 45
-42 39 -17 -1 6 -1 9 1 5 3 -5 11 -8 19 -8 8 0 14 -4 14 -10 0 -5 5 -10 11
-10 5 0 7 5 3 12 -4 7 -3 8 4 4 7 -4 12 -14 12 -22 0 -8 5 -14 11 -14 6 0 9 6
6 13 -3 8 1 14 8 14 14 0 14 -14 1 -36 -5 -8 1 -7 18 4 21 14 30 15 39 6 9
-10 8 -11 -4 -6 -10 4 -20 2 -23 -3 -5 -8 27 -8 61 -1 17 4 43 -13 36 -25 -4
-6 2 -4 12 4 11 9 16 10 11 3 -4 -8 -2 -13 4 -13 6 0 8 -5 4 -12 -4 -7 -3 -8
5 -4 6 4 8 12 5 18 -4 6 -2 8 4 4 5 -3 13 0 16 6 3 7 3 2 -1 -12 -5 -23 -4
-24 11 -11 12 10 20 11 24 4 4 -5 21 -9 38 -8 24 1 31 -2 27 -13 -5 -11 -7
-11 -14 0 -5 8 -9 9 -9 2 0 -6 8 -18 17 -25 11 -10 14 -10 9 -1 -4 7 -1 12 9
12 10 0 13 5 9 13 -4 7 -3 8 2 4 5 -5 9 -16 9 -25 0 -9 6 -16 13 -14 7 1 21
-2 32 -8 13 -7 21 -7 26 2 4 6 3 8 -2 5 -6 -3 -16 -2 -24 3 -12 8 -13 11 -2
22 11 11 13 10 10 -2 -2 -8 4 -14 12 -15 8 0 14 -9 13 -18 0 -10 2 -16 5 -13
3 3 12 0 20 -7 10 -8 13 -8 9 -1 -11 18 16 23 44 8 13 -7 19 -13 14 -14 -6 0
-11 -9 -12 -20 -1 -11 2 -18 7 -15 11 7 7 -22 -5 -32 -4 -4 -5 -2 0 6 5 9 4
12 -3 7 -7 -4 -12 -2 -12 5 0 7 -3 10 -6 6 -3 -3 6 -22 22 -42 15 -20 23 -35
18 -34 -19 3 -32 -2 -37 -14 -3 -8 1 -14 9 -14 7 0 11 4 8 9 -3 4 3 5 12 1 11
-4 13 -8 6 -11 -7 -2 -10 -8 -7 -13 4 -5 -1 -6 -10 -3 -11 5 -14 2 -9 -10 3
-9 2 -22 -3 -29 -12 -15 -11 -36 1 -39 6 -2 11 9 11 25 1 15 5 30 8 33 3 4 5
-10 3 -31 -2 -21 -9 -40 -14 -44 -6 -3 -8 -18 -5 -33 3 -15 9 -25 13 -23 5 3
11 1 15 -4 3 -6 -3 -8 -15 -6 -29 6 -34 -11 -8 -29 18 -13 20 -18 9 -28 -11
-11 -12 -10 -6 1 5 9 4 12 -3 7 -7 -4 -12 -2 -12 5 0 7 -3 10 -6 6 -3 -3 6
-22 22 -42 15 -20 23 -35 18 -34 -19 3 -32 -2 -37 -14 -3 -8 1 -14 9 -14 7 0
11 4 8 9 -3 4 3 5 12 1 11 -4 13 -8 6 -11 -7 -2 -10 -8 -7 -13 4 -5 -1 -6 -10
-3 -11 5 -14 2 -9 -10 3 -9 2 -22 -3 -29 -12 -15 -11 -36 1 -39 6 -2 11 9 11
25 1 15 5 30 8 33 3 4 5 -10 3 -31 -2 -21 -9 -40 -14 -44 -6 -3 -8 -18 -5 -33
3 -15 9 -25 13 -23 5 3 11 1 15 -4 3 -6 -3 -8 -15 -6 -29 6 -34 -11 -8 -29 18
-13 20 -18 9 -28 -11 -11 -12 -10 -6 1 5 9 4 12 -3 7 -7 -4 -12 -2 -12 5 0 7
-3 10 -6 6 -3 -3 6 -22 22 -42 15 -20 23 -35 18 -34 -19 3 -32 -2 -37 -14 -3
-8 1 -14 9 -14 7 0 11 4 8 9 -3 4 3 5 12 1 11 -4 13 -8 6 -11 -7 -2 -10 -8 -7
-13 4 -5 -1 -6 -10 -3 -11 5 -14 2 -9 -10 3 -9 2 -22 -3 -29 -12 -16 -11 -38
2 -34 5 1 10 12 11 25 0 12 4 25 7 28 3 4 5 -10 3 -31 -2 -21 -9 -40 -14 -44
-6 -3 -8 -18 -5 -33 3 -15 9 -25 13 -23 5 3 11 1 15 -4 3 -6 -3 -8 -15 -6 -29
6 -34 -11 -8 -29 18 -13 20 -18 9 -28 -11 -11 -12 -10 -6 1 5 9 4 12 -3 7 -7
-4 -12 -2 -12 5 0 7 -3 10 -6 6 -3 -3 6 -22 22 -42 15 -20 23 -35 18 -34 -19
3 -32 -2 -37 -14 -3 -8 1 -14 9 -14 7 0 11 4 8 9 -3 4 3 5 12 1 11 -4 13 -8 6
-11 -7 -2 -10 -8 -7 -13 4 -5 -1 -6 -10 -3 -11 5 -14 2 -9 -10 3 -9 2 -22 -3
-29 -12 -15 -11 -36 1 -39 6 -2 11 9 11 25 1 15 5 30 8 33 3 4 5 -11 2 -32 -2
-21 -8 -40 -14 -42 -6 -2 -11 -8 -11 -13 0 -4 6 -6 13 -3 8 3 14 -2 14 -10 0
-8 -4 -13 -9 -10 -4 3 -8 -2 -8 -11 0 -9 4 -14 9 -10 5 3 12 1 16 -4 3 -6 -3
-8 -15 -6 -29 6 -34 -11 -8 -29 18 -13 20 -18 9 -28 -11 -11 -12 -10 -6 1 5 9
4 12 -3 7 -7 -4 -12 -2 -12 5 0 7 -3 9 -6 6 -4 -4 -1 -14 7 -23 7 -9 14 -21
15 -28 1 -6 3 -17 5 -25 3 -9 -5 -15 -24 -16 -18 -1 -26 2 -23 10 2 6 -2 12
-10 12 -7 0 -11 -3 -9 -7 2 -4 -3 -7 -11 -7 -9 0 -13 6 -9 16 5 12 3 13 -6 4
-9 -9 -15 -8 -28 6 -9 9 -13 12 -9 6 4 -6 -1 -11 -12 -11 -10 0 -17 4 -14 7 2
4 0 10 -6 14 -5 3 -10 1 -10 -5 0 -6 -7 -4 -16 5 -14 13 -19 14 -25 3 -8 -13
-13 -3 -9 17 1 6 -2 7 -6 3 -4 -4 -13 -3 -21 4 -11 9 -12 7 -7 -8 7 -19 7 -19
-14 0 -14 12 -22 14 -22 7 0 -7 -5 -9 -10 -6 -8 5 -7 12 2 23 10 12 10 14 1 8
-23 -13 -54 -16 -47 -4 5 7 1 9 -9 5 -10 -3 -17 -3 -17 1 0 4 -17 8 -37 9 -20
1 -39 7 -44 14 -4 6 -14 9 -23 6 -8 -3 -21 -1 -28 6 -7 7 -24 13 -37 14 -13 1
-31 8 -40 16 -9 8 -29 13 -46 13 -16 -1 -41 4 -54 11 -14 6 -29 9 -34 6 -6 -3
-7 -1 -3 6 5 8 0 10 -18 7 -17 -3 -29 1 -36 12 -6 12 -9 13 -10 3 0 -9 -5 -7
-17 6 -10 10 -14 13 -9 6 7 -11 4 -12 -18 -4 -14 6 -26 7 -26 4 0 -4 -5 -2
-12 5 -7 7 -20 12 -30 12 -10 0 -18 6 -18 13 0 8 -4 7 -10 -3 -8 -12 -10 -12
-10 5 0 17 -2 17 -10 5 -9 -14 -15 -7 -11 14 1 5 -5 4 -13 -4 -9 -7 -16 -8
-16 -3 0 6 -11 9 -25 8 -16 -2 -23 1 -18 7 4 7 -2 9 -16 5 -14 -3 -24 0 -27 7
-3 8 -17 12 -34 10 -16 -2 -32 2 -36 8 -4 6 -3 8 4 4 6 -3 13 -2 17 3 3 6 -6
8 -21 5 -19 -3 -24 -1 -18 8 6 10 3 9 -9 -1 -11 -9 -17 -10 -17 -2 0 6 -5 11
-11 11 -6 0 -7 -6 -2 -12 4 -7 -5 -5 -20 5 -15 10 -33 15 -39 11 -7 -4 -8 -3
-4 4 4 7 5 12 2 12 -2 0 -13 3 -23 6 -15 5 -15 4 -3 -5 12 -8 11 -10 -7 -9
-14 2 -19 7 -15 18 4 12 2 13 -8 3 -11 -10 -18 -9 -34 5 -11 9 -16 11 -12 5 7
-14 -22 -5 -65 17 -21 12 -27 45 -6 35 6 -4 4 0 -6 8 -14 11 -15 16 -5 20 10
4 10 8 -2 16 -13 9 -12 11 3 11 17 0 17 1 3 16 -21 20 -20 28 0 20 15 -6 15
-4 3 10 -18 21 -21 47 -5 41 7 -3 13 1 13 9 0 7 -4 11 -9 8 -16 -10 -1 39 15
51 9 7 14 14 11 17 -3 4 -1 9 5 13 6 3 11 1 11 -6 0 -6 9 0 21 15 12 15 17 31
13 38 -5 8 0 7 11 -2 11 -9 16 -10 11 -2 -4 7 -2 12 4 12 6 0 8 5 5 10 -3 6
-1 10 5 10 6 0 8 5 4 13 -5 7 0 6 11 -3 12 -10 16 -11 11 -2 -5 8 2 22 21 38
15 13 24 24 19 24 -6 0 -1 7 10 16 10 8 13 12 5 8 -9 -5 -12 -3 -7 5 4 7 17 9
29 6 18 -5 19 -4 7 4 -13 10 -13 12 0 20 8 5 19 7 25 3 5 -3 3 3 -5 13 -8 10
-10 16 -5 13 6 -4 19 1 30 9 19 15 19 15 1 9 -16 -5 -17 -4 -6 9 7 8 17 12 23
8 7 -4 8 0 3 12 -5 15 -4 16 9 5 13 -11 14 -10 9 4 -3 9 -1 16 6 16 6 0 8 5 5
10 -6 9 8 15 29 11 5 -1 4 4 -2 12 -10 11 -9 17 1 26 8 6 18 7 22 3 5 -4 5 2
1 12 -5 16 -4 17 9 6 13 -11 14 -10 9 5 -6 14 -4 16 7 10 11 -7 11 -5 -1 10
-9 11 -10 16 -2 11 7 -4 12 -2 12 4 0 6 4 9 8 6 4 -2 14 5 22 17 12 21 12 21
-6 8 -10 -7 -6 -2 9 13 16 14 22 26 15 27 -7 0 -3 4 10 10 13 5 21 13 17 18
-3 6 3 14 12 20 10 6 14 11 9 11 -5 0 7 14 25 31 19 18 26 26 16 19 -15 -11
-17 -10 -11 4 3 9 13 16 22 16 8 0 12 3 9 6 -3 4 4 15 17 25 14 11 23 27 22
37 -2 9 8 25 23 34 14 10 21 18 15 18 -5 0 -14 -3 -20 -7 -5 -5 -1 0 9 9 10 9
18 21 18 25 0 4 7 7 14 7 10 -1 12 3 6 15 -6 11 -3 23 9 38 10 12 19 20 22 18
2 -2 5 6 5 18 1 12 7 23 13 25 5 2 10 9 10 16 0 15 20 36 34 36 5 0 2 -6 -7
-12z m-3186 -25 c13 -16 12 -17 -3 -4 -10 7 -18 15 -18 17 0 8 8 3 21 -13z
m196 -60 c0 -9 -4 -10 -14 -2 -7 6 -13 12 -13 14 0 1 6 2 13 2 8 0 14 -6 14
-14z m48 -5 c5 4 5 1 1 -5 -10 -18 -23 -16 -30 3 -5 13 -4 14 7 6 8 -7 18 -8
22 -4z m3476 -71 c-10 -9 -11 -8 -5 6 3 10 9 15 12 12 3 -3 0 -11 -7 -18z
m-877 -5 c3 -5 -1 -9 -9 -9 -8 0 -12 4 -9 9 3 4 7 8 9 8 2 0 6 -4 9 -8z m186
-86 c0 -2 -7 -9 -15 -16 -13 -11 -14 -10 -9 4 5 14 24 23 24 12z m-1374 -61
c-3 -8 -1 -15 4 -15 6 0 10 -5 10 -10 0 -6 -8 -5 -19 2 -15 9 -17 15 -9 25 14
17 21 16 14 -2z m67 -78 c4 3 7 1 7 -5 0 -18 -27 -14 -34 4 -5 13 -4 14 7 6 8
-7 17 -9 20 -5z m32 -60 c1 -34 -1 -34 -20 2 -13 27 -13 29 3 27 11 -2 17 -12
17 -29z m2125 -42 c0 -8 -2 -15 -4 -15 -2 0 -6 7 -10 15 -3 8 -1 15 4 15 6 0
10 -7 10 -15z m-1990 -121 c-13 -14 -2 -24 18 -17 14 4 15 3 2 -5 -16 -12 -26
-8 -39 16 -7 14 -5 18 9 18 13 0 16 -4 10 -12z m60 -84 c0 -5 -2 -10 -4 -10
-3 0 -8 5 -11 10 -3 6 -1 10 4 10 6 0 11 -4 11 -10z m1930 -115 c0 -8 -2 -15
-4 -15 -2 0 -6 7 -10 15 -3 8 -1 15 4 15 6 0 10 -7 10 -15z m-1706 -121 c3 -8
2 -12 -4 -9 -6 3 -10 10 -10 16 0 14 7 11 14 -7z m54 -79 c-3 -3 -9 2 -12 12
-6 14 -5 15 5 6 7 -7 10 -15 7 -18z m5 -112 c4 -3 2 -13 -5 -20 -9 -11 -9 -17
3 -24 8 -5 10 -9 4 -9 -5 0 -16 4 -23 9 -10 6 -10 10 3 21 13 11 13 15 3 21
-7 5 -8 9 -2 9 6 0 14 -3 17 -7z m1647 -8 c0 -8 -2 -15 -4 -15 -2 0 -6 7 -10
15 -3 8 -1 15 4 15 6 0 10 -7 10 -15z m-3300 -65 c0 -5 -5 -10 -11 -10 -5 0
-7 5 -4 10 3 6 8 10 11 10 2 0 4 -4 4 -10z m1871 -234 c-9 -11 -8 -15 4 -20 9
-3 13 -2 10 3 -3 5 -1 12 5 16 9 6 14 -7 11 -27 0 -5 4 -8 9 -8 6 0 10 7 8 16
-2 10 3 18 10 20 7 1 8 0 2 -3 -19 -9 20 -35 53 -33 30 2 36 1 55 -5 4 -2 17
-6 29 -10 13 -4 20 -12 16 -19 -3 -6 0 -6 8 2 16 15 29 16 29 1 0 -5 -6 -7
-12 -3 -9 5 -9 3 1 -9 7 -9 18 -14 24 -10 19 11 58 12 50 0 -4 -6 0 -8 10 -4
11 4 21 -1 28 -14 6 -11 13 -18 16 -15 4 3 13 0 22 -6 13 -10 14 -10 4 2 -7 8
-13 18 -13 24 0 5 9 -1 19 -13 11 -12 22 -22 25 -22 3 1 16 1 29 1 18 0 19 -2
7 -10 -17 -11 -10 -13 14 -4 9 3 13 11 9 18 -4 7 -1 7 9 -1 8 -7 19 -9 23 -5
5 4 5 1 1 -5 -4 -8 -1 -13 9 -13 10 0 13 5 9 12 -4 7 -3 8 5 4 8 -5 9 -12 2
-20 -7 -8 -6 -17 1 -26 8 -12 9 -12 4 3 -3 9 -2 17 2 18 4 0 15 2 24 4 9 2 23
-3 29 -11 10 -12 14 -12 20 -2 6 9 9 6 9 -10 0 -19 4 -22 20 -17 13 4 20 2 21
-7 0 -7 4 -4 9 7 7 16 9 17 9 3 1 -13 8 -16 30 -13 24 3 29 0 25 -13 -4 -13
-2 -13 12 3 13 15 15 16 11 3 -7 -19 19 -33 29 -16 5 7 2 8 -6 3 -9 -5 -11 -4
-6 4 6 9 11 9 21 1 8 -7 20 -8 26 -4 8 5 9 3 5 -5 -5 -7 -14 -10 -22 -7 -8 3
-14 1 -14 -4 0 -13 37 -13 45 0 3 6 11 10 16 10 6 0 3 -7 -5 -16 -23 -23 -19
-27 8 -8 23 15 26 14 37 -5 10 -15 17 -17 32 -9 13 7 17 7 13 0 -4 -7 4 -10
21 -8 29 2 76 -21 68 -33 -2 -4 2 -8 10 -8 8 0 11 5 8 11 -4 6 0 5 9 -2 11 -9
18 -10 23 -2 8 12 25 4 25 -13 0 -7 -4 -6 -11 3 -9 13 -10 13 -6 0 2 -8 10
-14 16 -13 6 2 11 -2 11 -9 0 -6 7 -3 15 8 14 19 14 19 15 -1 0 -17 2 -17 10
-5 8 12 10 12 10 1 0 -11 3 -11 16 0 15 12 16 11 9 -11 -6 -20 -5 -23 6 -12 7
6 17 12 22 12 4 0 5 -6 1 -12 -5 -9 -2 -9 9 1 20 16 23 1 5 -18 -11 -11 -9
-11 9 0 12 7 19 17 16 23 -3 5 -1 6 5 2 6 -3 9 -15 7 -26 -2 -13 1 -17 10 -14
8 3 11 12 8 20 -3 8 0 14 7 14 6 0 9 -4 5 -9 -3 -5 -1 -12 5 -16 6 -4 8 -10 6
-14 -3 -4 1 -8 9 -8 11 0 12 4 3 14 -6 7 -8 16 -4 20 3 3 6 1 6 -5 0 -7 7 -12
16 -12 9 0 12 -5 8 -12 -4 -7 3 -4 15 7 16 14 22 15 19 5 -2 -8 3 -14 10 -12
8 1 11 -2 7 -8 -3 -5 2 -10 12 -11 11 0 13 -3 5 -6 -7 -3 -23 3 -34 13 -21 19
-21 19 -7 -3 8 -13 17 -23 20 -23 4 0 14 -11 23 -25 9 -14 13 -25 9 -24 -19 3
-31 -2 -36 -14 -3 -8 1 -14 9 -14 7 0 11 4 8 9 -3 4 3 5 12 1 11 -4 13 -8 6
-11 -7 -2 -10 -8 -7 -13 4 -5 -1 -6 -10 -3 -11 5 -14 2 -9 -10 3 -9 2 -22 -3
-29 -12 -15 -11 -36 1 -39 6 -2 11 9 11 25 1 15 5 30 8 33 3 4 5 -10 3 -31 -2
-21 -9 -40 -14 -44 -6 -3 -8 -18 -5 -33 3 -15 9 -25 13 -23 5 3 11 1 15 -4 3
-6 -3 -8 -15 -6 -29 6 -34 -11 -8 -29 18 -13 20 -18 9 -28 -11 -11 -12 -10 -6
1 5 9 4 12 -3 7 -7 -4 -12 -2 -12 5 0 7 -3 10 -6 6 -3 -3 6 -22 22 -42 15 -20
23 -35 18 -34 -19 3 -32 -2 -37 -14 -3 -8 1 -14 9 -14 7 0 11 4 8 9 -3 4 3 5
12 1 11 -4 13 -8 6 -11 -7 -2 -10 -8 -7 -13 4 -5 -1 -6 -10 -3 -11 5 -14 2 -9
-10 3 -9 2 -22 -3 -29 -12 -15 -11 -36 1 -39 6 -2 11 9 11 25 1 15 5 30 8 33
3 4 5 -10 3 -31 -2 -21 -9 -40 -14 -44 -6 -3 -8 -18 -5 -33 3 -15 9 -25 13
-23 5 3 11 1 15 -4 3 -6 -3 -8 -15 -6 -29 6 -34 -11 -8 -29 18 -13 20 -18 9
-28 -11 -11 -12 -10 -6 1 5 9 4 12 -3 7 -7 -4 -12 -2 -12 5 0 7 -3 10 -6 6 -3
-3 6 -22 22 -42 15 -20 23 -35 18 -34 -19 3 -32 -2 -37 -14 -3 -8 1 -14 9 -14
7 0 11 4 8 9 -3 4 3 5 12 1 11 -4 13 -8 6 -11 -7 -2 -10 -8 -7 -13 4 -5 -1 -6
-10 -3 -11 5 -14 2 -9 -10 3 -9 2 -22 -3 -29 -12 -15 -11 -36 1 -39 6 -2 11 9
11 25 1 15 5 30 8 33 3 4 5 -10 3 -31 -2 -21 -9 -40 -14 -44 -6 -3 -8 -18 -5
-33 3 -15 9 -25 13 -23 5 3 11 1 15 -4 3 -6 -3 -8 -15 -6 -29 6 -34 -11 -8
-29 18 -13 20 -18 9 -28 -11 -11 -12 -10 -6 1 5 9 4 12 -3 7 -7 -4 -12 -2 -12
5 0 7 -3 10 -6 6 -3 -3 6 -22 22 -42 15 -20 23 -35 18 -34 -19 3 -32 -2 -37
-14 -3 -8 1 -14 9 -14 7 0 11 4 8 9 -3 4 3 5 12 1 11 -4 13 -8 6 -11 -7 -2
-10 -8 -7 -13 4 -5 -1 -6 -10 -3 -11 5 -14 2 -9 -10 3 -9 2 -22 -3 -29 -12
-16 -11 -38 2 -34 5 1 10 12 11 25 0 12 4 25 7 28 3 4 5 -10 3 -31 -2 -21 -9
-40 -14 -44 -6 -3 -8 -18 -5 -33 3 -15 9 -25 13 -23 5 3 11 1 15 -4 3 -6 -3
-8 -15 -6 -29 6 -34 -11 -8 -29 18 -13 20 -18 9 -28 -11 -11 -12 -10 -6 1 5 9
4 12 -3 7 -7 -4 -12 -2 -12 5 0 7 -3 10 -6 6 -3 -3 6 -22 22 -42 15 -20 23
-35 18 -34 -20 3 -32 -2 -38 -17 -5 -14 -4 -15 9 -4 13 11 14 10 9 -5 -5 -11
-4 -16 3 -12 5 3 10 0 10 -7 0 -16 -85 -19 -104 -4 -7 6 -13 7 -13 3 0 -4 -7
-2 -15 5 -8 6 -19 9 -25 5 -5 -3 -10 -2 -10 4 0 6 -8 7 -17 4 -15 -6 -16 -4
-6 8 10 12 8 15 -7 15 -10 0 -16 -4 -14 -8 3 -4 0 -8 -5 -8 -6 0 -11 5 -11 10
0 6 -3 9 -7 9 -21 -3 -33 2 -27 12 4 7 -1 7 -16 -1 -17 -9 -21 -9 -15 0 5 9 2
10 -13 6 -12 -4 -23 -2 -28 5 -5 8 -3 9 6 4 9 -5 11 -4 6 4 -6 9 -11 9 -22 0
-11 -9 -14 -9 -14 0 0 8 -8 10 -21 6 -15 -5 -19 -4 -14 4 4 8 -2 10 -19 7 -14
-3 -26 0 -26 5 0 5 5 9 12 9 6 0 8 3 5 6 -4 4 -13 1 -22 -6 -13 -11 -19 -8
-17 11 1 3 -5 6 -13 6 -8 0 -12 -4 -9 -9 3 -4 0 -8 -5 -8 -6 0 -11 4 -11 9 0
5 -7 12 -16 15 -8 3 -12 2 -9 -4 3 -6 1 -10 -4 -10 -6 0 -11 7 -11 15 0 8 -5
15 -11 15 -5 0 -7 -5 -3 -12 4 -7 3 -8 -4 -4 -7 4 -22 9 -33 11 -12 3 -24 7
-28 11 -3 4 3 4 14 0 16 -6 17 -5 8 5 -10 10 -16 9 -29 -2 -13 -10 -16 -10
-10 -1 6 9 1 11 -18 8 -14 -3 -29 0 -32 6 -4 6 -2 8 4 4 6 -3 14 -1 18 6 4 7
4 10 -1 6 -4 -4 -14 -3 -22 4 -8 6 -13 7 -11 2 2 -5 -1 -9 -7 -9 -5 0 -9 3 -8
6 1 4 -7 4 -19 1 -16 -4 -19 -2 -13 9 7 12 6 12 -7 1 -12 -10 -18 -9 -28 3
-11 13 -15 13 -21 3 -6 -10 -9 -10 -9 -1 0 7 -10 17 -22 23 -22 11 -22 10 -4
-4 25 -20 18 -20 -27 -1 -19 8 -38 11 -42 7 -5 -4 -5 -1 0 7 5 9 3 12 -6 9 -8
-3 -25 -1 -39 5 -14 5 -34 10 -45 12 -11 1 -33 7 -49 14 -15 6 -39 12 -52 13
-16 2 -20 6 -13 14 7 8 6 15 -2 20 -8 4 -9 3 -5 -4 5 -8 -2 -12 -19 -12 -14 0
-24 4 -21 8 3 4 -8 7 -25 6 -16 -1 -32 3 -36 9 -4 6 -1 7 7 2 9 -5 11 -4 6 4
-6 9 -11 9 -21 1 -9 -8 -14 -6 -19 5 -4 12 -10 14 -23 6 -14 -7 -24 -4 -42 12
-13 12 -21 16 -17 10 5 -9 2 -11 -8 -7 -9 3 -13 11 -9 18 4 6 -1 5 -10 -3 -9
-7 -17 -9 -17 -4 0 5 -12 10 -27 11 -28 2 -79 42 -55 42 8 0 10 5 6 12 -10 17
-11 58 -2 64 5 3 5 10 1 17 -10 16 -10 58 -1 63 5 3 5 10 1 17 -10 16 -10 58
-1 63 5 3 5 11 1 17 -10 17 -11 59 -1 80 6 11 5 17 -4 18 -11 0 -11 2 0 6 10
4 10 8 0 21 -11 14 -10 15 6 9 16 -7 17 -5 5 9 -18 22 -21 47 -4 40 9 -3 12 0
8 10 -3 7 -10 14 -16 14 -6 0 -2 7 9 15 19 15 19 15 -1 8 -17 -6 -18 -5 -7 9
8 10 9 19 3 22 -5 4 -9 15 -8 26 1 10 4 17 7 15 3 -2 6 5 6 15 0 10 -5 18 -11
17 -5 -1 -9 6 -7 16 2 10 -3 16 -10 15 -7 -2 -12 2 -11 9 2 8 -4 10 -14 6 -11
-4 -14 -3 -9 5 5 8 1 10 -10 5 -10 -4 -15 -2 -11 4 3 5 0 10 -8 10 -8 0 -11
-5 -8 -10 4 -6 0 -8 -10 -4 -10 3 -17 2 -17 -4 0 -6 -4 -8 -9 -4 -5 3 -13 0
-16 -6 -4 -5 -14 -8 -22 -5 -8 3 -12 2 -8 -3 8 -13 -5 -42 -16 -35 -5 3 -6 10
-3 16 4 7 2 8 -5 4 -6 -4 -9 -11 -6 -16 3 -5 1 -12 -5 -15 -8 -5 -6 -15 5 -31
17 -26 9 -34 -9 -9 -9 13 -11 11 -12 -10 -1 -15 2 -22 9 -18 7 4 8 -5 4 -26
-5 -23 -3 -30 5 -25 7 4 8 3 4 -5 -4 -6 -12 -8 -18 -5 -6 4 -8 1 -6 -7 3 -8
11 -13 17 -11 7 1 10 -2 6 -8 -3 -6 -11 -8 -16 -5 -18 12 -9 -7 14 -26 l22
-20 -22 11 c-13 6 -23 8 -23 5 0 -13 6 -20 14 -17 5 2 3 -5 -5 -14 -12 -16
-12 -17 3 -11 10 3 20 2 23 -4 4 -5 1 -8 -7 -7 -8 2 -12 -4 -10 -16 2 -13 -1
-16 -10 -10 -11 6 -11 5 0 -8 9 -11 10 -23 3 -41 -8 -20 -7 -30 5 -42 9 -8 12
-15 7 -15 -5 0 -14 5 -20 11 -8 8 -13 7 -18 -2 -6 -8 -4 -10 5 -4 10 6 12 4 7
-8 -4 -11 -2 -14 7 -11 8 3 17 0 22 -7 4 -8 3 -10 -4 -5 -7 4 -12 2 -12 -4 0
-6 -5 -8 -12 -4 -7 4 -8 3 -4 -5 4 -6 13 -8 19 -4 7 4 6 -1 -2 -10 -8 -10 -11
-21 -7 -24 4 -4 11 -1 16 7 6 9 10 10 10 3 0 -6 -5 -15 -10 -18 -14 -9 -1 -27
13 -19 7 4 7 1 -1 -7 -11 -12 -15 -11 -26 4 -12 16 -14 16 -20 2 -4 -11 -2
-14 6 -9 7 5 9 2 5 -9 -4 -11 -2 -14 7 -11 8 3 17 0 22 -7 4 -8 3 -10 -4 -5
-7 4 -12 2 -12 -4 0 -6 -4 -8 -10 -5 -6 3 -7 -1 -4 -10 5 -12 10 -13 17 -6 6
6 16 11 21 11 6 0 5 -4 -2 -9 -7 -4 -14 -18 -15 -30 -1 -24 -50 -57 -76 -52
-7 1 -10 -2 -6 -8 4 -8 -2 -8 -19 -1 -19 7 -25 6 -23 -3 1 -7 -6 -11 -15 -11
-10 1 -18 -2 -18 -7 0 -5 -3 -8 -7 -8 -5 1 -10 1 -13 -1 -3 -1 -15 -3 -28 -6
-16 -3 -21 0 -17 8 4 7 -2 2 -13 -11 -13 -17 -21 -20 -27 -12 -5 9 -12 8 -26
-5 -11 -9 -22 -14 -26 -11 -3 4 -12 -1 -20 -11 -10 -14 -12 -14 -8 -1 4 9 0
16 -9 16 -8 0 -12 -6 -9 -14 4 -9 0 -11 -13 -6 -10 4 -15 2 -11 -4 4 -6 -6 -9
-23 -8 -17 1 -30 -3 -30 -8 0 -5 -7 -4 -15 3 -13 11 -14 10 -9 -6 4 -10 4 -16
-1 -12 -4 4 -14 3 -21 -3 -8 -7 -14 -6 -20 2 -5 8 -3 9 6 4 9 -5 11 -4 6 4 -4
6 -12 9 -17 5 -5 -3 -7 -9 -4 -14 3 -4 -2 -11 -11 -14 -10 -4 -13 -2 -8 7 4 6
-2 4 -13 -6 -21 -18 -22 -18 -33 0 -9 14 -10 15 -6 1 2 -9 -2 -19 -10 -22 -10
-4 -13 -2 -8 7 6 9 4 9 -8 -1 -13 -10 -17 -10 -21 0 -3 8 -6 6 -6 -6 -1 -14
-7 -17 -26 -14 -15 3 -22 1 -18 -5 4 -6 -2 -8 -15 -5 -12 4 -20 2 -16 -3 3 -5
0 -10 -5 -10 -6 -1 -15 -3 -21 -4 -5 -1 -22 -3 -36 -4 -16 -1 -23 -5 -18 -13
5 -7 3 -8 -6 -3 -7 4 -16 2 -21 -6 -7 -12 -10 -12 -21 0 -11 11 -11 13 1 6 10
-5 12 -4 7 4 -4 6 -12 9 -17 5 -5 -3 -7 -10 -4 -15 4 -5 0 -9 -9 -9 -8 0 -16
3 -19 8 -2 4 -2 2 -1 -5 4 -15 -13 -27 -18 -12 -2 5 -11 7 -21 4 -9 -4 -15
-11 -12 -16 3 -4 -4 -6 -15 -4 -11 2 -20 0 -20 -4 0 -5 -12 -7 -26 -5 -18 2
-24 -2 -21 -11 4 -9 -1 -11 -14 -8 -12 3 -19 0 -19 -8 0 -11 -2 -11 -10 1 -9
13 -11 13 -19 1 -8 -12 -12 -13 -25 -1 -14 11 -16 10 -9 -6 6 -17 5 -18 -11
-5 -15 12 -17 12 -14 0 2 -10 -7 -14 -34 -14 -20 0 -36 -4 -35 -8 1 -5 -20
-16 -48 -24 -27 -8 -56 -20 -64 -26 -12 -9 -13 -9 -7 1 10 16 1 15 -35 -4 -17
-8 -33 -13 -37 -10 -3 3 -11 1 -17 -4 -9 -8 -14 -6 -19 5 -4 11 -2 14 6 9 6
-4 4 3 -5 17 -19 26 -22 43 -8 34 5 -3 13 0 17 6 4 7 3 9 -3 6 -6 -4 -14 1
-17 10 -4 9 -2 20 5 23 8 6 8 9 0 14 -6 4 -11 12 -11 18 0 6 7 5 18 -3 14 -11
13 -10 -2 9 -11 12 -14 22 -8 22 7 0 12 5 12 11 0 5 -4 7 -10 4 -17 -11 -11 7
8 21 12 10 12 12 2 9 -12 -4 -15 4 -16 34 0 25 4 37 10 33 6 -3 4 3 -4 13 -14
17 -13 18 4 11 19 -7 19 -6 1 14 -14 15 -15 20 -4 21 10 0 11 2 2 6 -20 7 -15
23 5 16 14 -5 13 -3 -3 10 -12 10 -15 16 -7 17 8 0 10 5 5 12 -14 23 -14 50
-1 42 8 -5 7 0 -2 11 -14 17 -13 18 4 11 19 -7 19 -6 1 14 -14 15 -15 20 -4
21 10 0 11 2 2 6 -20 7 -15 23 5 16 14 -5 13 -3 -3 10 -11 10 -15 17 -7 17 10
0 10 4 0 20 -11 16 -9 22 7 35 11 8 13 13 5 10 -12 -4 -15 5 -15 44 0 39 3 47
15 43 9 -2 6 2 -5 11 -15 13 -16 16 -5 17 13 0 13 1 0 10 -13 8 -13 10 -1 10
12 0 12 3 3 12 -19 19 -14 32 6 17 14 -11 13 -10 -2 9 -11 12 -14 22 -8 22 7
0 12 5 12 11 0 5 -4 7 -10 4 -17 -11 -11 7 8 21 12 10 12 12 2 9 -12 -4 -15 4
-16 34 0 25 4 37 10 33 6 -3 4 3 -4 13 -14 17 -13 18 4 11 19 -7 19 -6 1 14
-14 15 -15 20 -4 21 10 0 11 2 2 6 -20 7 -15 23 5 16 14 -5 13 -3 -3 10 -12
10 -15 16 -7 17 8 0 10 5 5 12 -11 18 -10 52 2 60 6 5 5 8 -2 8 -7 0 -13 5
-13 11 0 5 6 7 13 3 7 -5 6 0 -3 11 -14 17 -13 18 4 11 19 -6 19 -6 3 12 -20
22 -22 36 -4 26 9 -5 9 -4 0 6 -10 11 -9 16 5 27 9 8 12 12 6 9 -7 -3 -14 3
-17 14 -3 11 0 20 6 21 8 0 8 2 0 6 -7 2 -13 9 -13 14 0 6 6 7 13 3 7 -5 6 0
-3 11 -14 17 -13 18 4 11 19 -6 19 -6 3 12 -20 22 -22 36 -4 26 8 -5 8 -2 -2
9 -9 11 -10 17 -2 17 6 0 11 5 11 11 0 5 -4 8 -9 5 -8 -5 -8 22 -1 32 2 1 3 6
4 11 0 5 5 13 10 18 5 4 6 3 2 -4 -4 -7 1 -11 13 -10 10 0 17 7 14 13 -3 9 3
11 18 7 13 -4 20 -2 16 4 -3 5 0 10 8 10 8 0 12 -4 9 -9 -3 -4 12 2 32 14 21
12 34 17 30 10 -5 -8 -2 -10 8 -6 9 3 13 10 10 15 -3 5 2 6 11 3 9 -4 25 2 37
12 21 19 21 19 8 -6 -13 -24 -12 -24 6 -10 10 8 23 21 27 28 5 7 12 10 17 7 4
-3 19 -1 33 4 16 6 28 6 35 -1 6 -6 12 -6 17 3 5 7 4 10 -2 6 -5 -3 -10 0 -10
7 0 9 10 11 38 6 31 -6 36 -5 32 9 -4 9 -3 13 2 9 4 -4 17 -3 28 3 12 7 17 7
13 1 -4 -6 2 -8 14 -5 11 3 20 9 20 14 0 5 12 9 26 9 14 0 23 4 19 9 -3 6 8 8
25 6 21 -3 33 1 37 11 4 12 8 12 20 -3 8 -10 11 -12 7 -4 -5 11 -3 13 11 7 16
-6 16 -4 4 11 -10 12 -10 15 -1 9 7 -4 23 -1 37 8 17 11 26 13 31 4 5 -7 3 -8
-6 -3 -9 5 -11 4 -6 -4 6 -8 12 -9 20 -2 7 6 17 7 21 3 5 -4 5 -2 1 5 -3 6 -2
14 4 18 5 3 10 1 10 -4 0 -6 5 -11 11 -11 5 0 7 5 3 12 -5 8 -2 9 9 5 11 -4
17 -1 17 8 0 8 4 15 10 15 5 0 7 -8 3 -17 -5 -15 -3 -14 10 2 10 12 16 15 17
7 0 -7 5 -10 10 -7 6 4 8 10 5 15 -3 5 0 12 6 16 7 4 9 3 5 -4 -3 -5 0 -12 6
-15 19 -6 39 4 31 16 -4 6 0 8 10 4 10 -3 17 -2 17 3 0 5 7 6 17 3 12 -5 14
-3 8 8 -8 12 -6 12 8 0 14 -11 18 -11 23 2 3 9 12 13 21 10 12 -5 14 -3 8 8
-8 12 -6 12 8 0 15 -12 21 -9 19 10 -1 3 10 4 23 1 14 -2 31 2 41 12 12 13 19
14 30 5 11 -9 14 -8 14 7 0 11 4 15 8 9 9 -13 35 -18 27 -5 -4 6 4 10 19 10
14 0 26 6 27 13 0 8 2 8 6 -2 4 -11 10 -8 25 10 l19 24 -7 -25 -6 -25 19 23
c22 24 39 30 27 10 -5 -9 -2 -9 9 1 13 11 17 11 17 1 0 -8 3 -10 6 -7 4 4 2
12 -4 20 -9 10 -6 13 13 12 13 0 27 -3 30 -7 4 -4 16 -3 27 3 18 10 19 8 13
-11 -6 -17 -4 -21 6 -14 12 6 12 5 0 -9 -16 -20 -1 -23 18 -4 11 10 11 8 0
-10 -7 -12 -18 -19 -24 -16 -5 4 -7 3 -3 -2 4 -4 3 -14 -4 -22 -6 -8 -7 -13
-2 -11 5 2 10 -1 12 -7 2 -5 10 -17 18 -26 11 -12 11 -18 1 -28 -9 -9 -9 -14
3 -21 9 -6 10 -10 3 -10 -6 0 -15 5 -18 10 -4 6 -11 7 -17 4 -6 -4 -5 -9 3
-15 8 -4 15 -20 16 -34 1 -14 -2 -23 -6 -21 -4 3 -8 -1 -8 -9 0 -8 4 -12 8 -9
4 2 10 0 13 -5 4 -5 -5 -8 -20 -6 -15 1 -22 -1 -16 -7 5 -5 19 -10 30 -11 20
-1 20 -2 5 -19 -15 -17 -11 -23 12 -18 6 1 4 -5 -3 -12 -11 -11 -16 -10 -26 5
-12 16 -14 16 -20 2 -4 -11 -2 -14 6 -9 7 5 9 2 5 -9 -4 -11 -2 -14 7 -11 17
6 41 -22 26 -31 -5 -3 -10 -15 -10 -26 0 -10 -5 -19 -11 -19 -5 0 -7 6 -3 13
4 6 4 9 -1 5 -4 -4 -15 -2 -24 4 -9 7 -6 1 7 -13 12 -14 22 -30 22 -37 0 -6 8
-16 18 -22 16 -11 16 -11 0 -6 -10 3 -20 1 -23 -4 -4 -6 -2 -10 4 -10 6 0 8
-7 5 -15 -4 -8 -11 -12 -18 -8 -6 3 -5 0 2 -8 11 -12 14 -12 23 1 9 13 10 13
6 -1 -3 -9 0 -22 6 -28 9 -9 8 -14 -3 -21 -9 -6 -10 -10 -3 -10 7 0 17 8 22
18 14 23 14 6 0 -19 -10 -20 -9 -20 13 -5 22 15 26 14 44 -3 20 -18 21 -18 33
1 6 10 15 16 20 14 4 -3 18 6 31 19 13 13 27 22 31 19 5 -3 6 1 3 9 -3 8 0 18
6 22 8 5 7 11 -2 23 -11 14 -10 15 7 9 20 -7 20 -7 1 8 -12 9 -15 15 -7 15 10
0 11 3 2 14 -8 10 -9 16 -1 21 6 3 7 11 3 18 -10 16 -10 58 -1 63 5 3 5 10 1
17 -10 16 -10 58 -1 63 5 3 5 10 1 17 -10 16 -10 58 -1 63 5 3 5 11 1 17 -10
17 -11 47 -1 41 4 -3 8 -1 8 5 0 5 -5 13 -10 16 -8 5 -8 11 0 20 7 8 7 15 1
19 -14 9 -9 47 6 42 7 -3 10 1 6 9 -3 8 -10 12 -17 8 -6 -3 -2 3 8 15 21 24
36 31 17 8z m106 -22 c-3 -3 -12 -4 -19 -1 -8 3 -5 6 6 6 11 1 17 -2 13 -5z
m723 -4 c0 -5 -2 -10 -4 -10 -3 0 -8 5 -11 10 -3 6 -1 10 4 10 6 0 11 -4 11
-10z m-1045 -70 c3 -6 -1 -7 -9 -4 -18 7 -21 14 -7 14 6 0 13 -4 16 -10z m582
-12 c-3 -8 -6 -5 -6 6 -1 11 2 17 5 13 3 -3 4 -12 1 -19z m-2857 -124 c0 -8
-5 -12 -10 -9 -6 4 -8 11 -5 16 9 14 15 11 15 -7z m37 -10 c-3 -3 -12 -4 -19
-1 -8 3 -5 6 6 6 11 1 17 -2 13 -5z m583 -404 c0 -5 -5 -10 -11 -10 -5 0 -7 5
-4 10 3 6 8 10 11 10 2 0 4 -4 4 -10z m3300 -15 c0 -8 -2 -15 -4 -15 -2 0 -6
7 -10 15 -3 8 -1 15 4 15 6 0 10 -7 10 -15z m-3300 -225 c0 -5 -5 -10 -11 -10
-5 0 -7 5 -4 10 3 6 8 10 11 10 2 0 4 -4 4 -10z m3300 -95 c0 -8 -2 -15 -4
-15 -2 0 -6 7 -10 15 -3 8 -1 15 4 15 6 0 10 -7 10 -15z m-3300 -144 c0 -5 -7
-12 -16 -15 -14 -5 -15 -4 -4 9 14 17 20 19 20 6z m3300 -176 c0 -8 -2 -15 -4
-15 -2 0 -6 7 -10 15 -3 8 -1 15 4 15 6 0 10 -7 10 -15z m-3300 -64 c0 -5 -7
-12 -16 -15 -14 -5 -15 -4 -4 9 14 17 20 19 20 6z m0 -161 c0 -5 -5 -10 -11
-10 -5 0 -7 5 -4 10 3 6 8 10 11 10 2 0 4 -4 4 -10z m3300 -95 c0 -8 -2 -15
-4 -15 -2 0 -6 7 -10 15 -3 8 -1 15 4 15 6 0 10 -7 10 -15z m-1402 -28 c8 -10
6 -13 -7 -13 -11 0 -17 6 -14 13 3 7 6 13 8 13 1 0 7 -6 13 -13z m302 -77 c0
-5 -2 -10 -4 -10 -3 0 -8 5 -11 10 -3 6 -1 10 4 10 6 0 11 -4 11 -10z m90 -46
c0 -2 -8 0 -19 5 -10 6 -22 7 -26 3 -5 -4 -5 -1 -1 6 5 9 12 9 27 2 10 -6 19
-13 19 -16z m30 1 c-7 -9 -15 -13 -19 -10 -3 3 1 10 9 15 21 14 24 12 10 -5z
m-3266 -21 c3 -8 2 -12 -4 -9 -6 3 -10 10 -10 16 0 14 7 11 14 -7z m3306 -5
c0 -6 -4 -7 -10 -4 -5 3 -10 11 -10 16 0 6 5 7 10 4 6 -3 10 -11 10 -16z
m-3265 -7 c-3 -3 -11 0 -18 7 -9 10 -8 11 6 5 10 -3 15 -9 12 -12z m1985 4 c0
-2 -7 -7 -16 -10 -8 -3 -12 -2 -9 4 6 10 25 14 25 6z m-1740 -71 c11 -13 10
-14 -4 -9 -9 3 -16 10 -16 15 0 13 6 11 20 -6z m3395 -33 c-3 -3 -11 0 -18 7
-9 10 -8 11 6 5 10 -3 15 -9 12 -12z m-3275 -8 c0 -8 -5 -12 -10 -9 -6 4 -8
11 -5 16 9 14 15 11 15 -7z m498 -139 c3 -3 -4 -4 -16 -2 -12 2 -24 6 -28 10
-4 3 4 4 16 2 12 -2 25 -7 28 -10z"/>
<path d="M3560 4896 c0 -2 8 -10 18 -17 15 -13 16 -12 3 4 -13 16 -21 21 -21
13z"/>
<path d="M3820 4756 c0 -2 7 -6 15 -10 8 -3 15 -1 15 4 0 6 -7 10 -15 10 -8 0
-15 -2 -15 -4z"/>
<path d="M3865 4740 c-3 -5 1 -10 10 -10 9 0 13 5 10 10 -3 6 -8 10 -10 10 -2
0 -7 -4 -10 -10z"/>
<path d="M3316 4695 c-12 -13 -20 -14 -37 -4 -12 6 -19 7 -15 1 9 -15 -24 -24
-40 -12 -9 9 -18 6 -33 -9 -24 -24 -35 -27 -26 -8 4 6 -2 2 -12 -9 -10 -12
-28 -21 -40 -19 -12 1 -21 -3 -20 -9 1 -6 -5 -11 -13 -11 -18 0 -40 -17 -33
-27 2 -4 -2 -5 -10 -2 -8 3 -23 -9 -37 -29 -13 -20 -30 -33 -37 -30 -7 3 -13
0 -13 -7 0 -7 -8 -19 -17 -27 -10 -8 -12 -11 -4 -7 9 4 12 3 7 -4 -4 -6 -13
-9 -21 -5 -11 4 -13 1 -8 -13 4 -12 3 -15 -6 -10 -8 6 -11 2 -9 -9 2 -10 -4
-20 -12 -22 -13 -4 -13 -3 0 7 13 10 13 11 0 8 -8 -3 -15 -18 -16 -34 -1 -16
-3 -31 -4 -34 -1 -3 -2 -8 -1 -13 0 -4 -2 -6 -6 -6 -27 4 -32 -2 -23 -26 7
-18 6 -24 -2 -22 -7 1 -12 -6 -13 -16 0 -10 -11 -25 -25 -33 l-25 -15 25 6
c24 6 24 5 6 -9 -18 -15 -15 -21 7 -17 5 1 6 -3 2 -9 -4 -7 -12 -7 -26 0 -23
13 -25 7 -3 -14 8 -9 11 -16 5 -16 -6 0 -11 -7 -11 -15 0 -8 -6 -15 -12 -15
-9 0 -9 -3 1 -9 8 -5 11 -16 8 -25 -3 -8 -1 -18 5 -22 6 -4 8 -3 4 4 -3 6 -3
13 2 16 4 2 8 -6 8 -20 0 -27 -6 -30 -26 -11 -11 9 -11 8 0 -7 14 -18 13 -19
-5 -12 -20 7 -20 7 0 -12 16 -15 23 -17 35 -8 13 9 13 9 3 -5 -10 -12 -10 -18
0 -28 10 -11 7 -11 -13 -1 -20 10 -23 10 -13 0 6 -7 9 -20 6 -29 -5 -13 -3
-14 8 -3 7 6 18 12 24 12 6 0 7 -3 0 -8 -5 -4 -19 -17 -30 -30 -14 -16 -15
-23 -5 -20 8 2 15 -3 16 -9 1 -7 3 -16 4 -20 1 -5 2 -12 1 -16 -1 -5 3 -6 9
-2 8 5 7 11 -1 21 -6 8 -8 14 -4 14 4 0 2 7 -5 15 -10 12 -10 15 3 15 10 0 15
-7 12 -19 -2 -11 5 -27 16 -37 10 -9 19 -22 19 -27 0 -6 -6 -3 -12 5 -12 16
-14 16 -28 0 -13 -14 -12 -15 4 -9 14 6 17 4 12 -8 -3 -9 -2 -13 4 -10 14 9
12 -9 -2 -24 -11 -10 -10 -12 2 -9 8 2 14 -3 13 -9 -4 -18 14 -16 21 2 3 10
-1 15 -11 15 -9 0 -14 3 -10 6 3 4 13 4 21 1 13 -5 14 -12 6 -32 -13 -34 -5
-48 19 -35 26 13 34 1 16 -27 -12 -17 -12 -23 -3 -21 7 2 12 -3 11 -9 -2 -7 0
-12 5 -12 20 3 25 -2 12 -12 -13 -9 -12 -10 2 -5 10 3 20 1 24 -5 3 -6 12 -8
20 -5 7 3 16 0 20 -6 4 -7 10 -6 16 3 8 11 9 10 4 -3 -3 -11 2 -21 14 -28 11
-6 17 -18 15 -29 -2 -13 2 -18 18 -17 12 0 21 -3 20 -9 -1 -5 20 -10 45 -10
41 0 47 -3 44 -19 -3 -17 -1 -18 11 -7 12 9 17 9 23 0 5 -8 3 -9 -6 -4 -9 5
-11 4 -6 -3 5 -9 13 -9 26 -2 13 7 21 7 26 -1 4 -8 9 -7 15 2 6 10 9 7 10 -11
0 -17 3 -20 7 -10 4 9 21 15 39 16 18 0 30 -3 27 -8 -5 -7 3 -10 22 -7 4 0 11
-5 15 -13 6 -8 9 -9 9 -1 0 6 8 10 18 9 9 -2 20 2 24 7 9 15 68 18 68 4 0 -7
4 -6 9 3 6 8 7 18 4 24 -3 5 -1 6 6 2 6 -4 9 -13 5 -19 -3 -7 2 -3 11 8 18 22
24 23 36 3 7 -10 9 -9 9 5 0 10 5 15 10 12 13 -8 90 25 90 38 0 5 -8 3 -17 -4
-16 -13 -17 -12 -5 3 7 9 22 15 33 13 12 -3 19 2 19 12 0 10 6 14 19 10 14 -3
18 -1 14 9 -3 9 2 14 15 14 11 0 26 8 33 18 13 15 12 16 -3 3 -10 -7 -18 -9
-18 -3 0 12 29 24 41 17 5 -4 6 1 3 9 -4 11 0 16 11 16 9 0 15 5 13 12 -3 7 7
23 20 35 14 13 21 23 16 23 -5 0 5 10 21 21 17 12 21 18 11 15 -19 -7 -19 -6
-3 12 9 10 17 24 17 30 0 6 10 18 23 28 16 12 17 15 4 10 -20 -6 -16 4 12 38
9 11 10 16 4 12 -17 -9 -17 20 -1 30 7 5 8 3 3 -6 -5 -9 -4 -11 3 -6 7 4 8 15
3 29 -10 28 -3 59 11 51 7 -5 8 -2 3 6 -4 7 -8 39 -9 70 -1 47 2 57 14 53 8
-2 4 3 -10 11 -23 14 -23 15 -5 16 l20 1 -20 9 c-13 6 -15 9 -5 9 9 1 11 4 5
9 -5 4 -12 18 -14 32 -1 14 -8 28 -15 32 -7 5 -6 8 3 8 11 0 10 4 -5 16 -10 8
-13 13 -7 9 9 -4 11 -1 7 9 -3 9 -11 16 -16 16 -6 0 -8 9 -5 20 3 10 2 18 -2
17 -3 -1 -7 2 -8 7 0 5 -8 13 -17 18 -9 5 -16 16 -16 23 0 8 -4 15 -10 15 -5
0 -10 10 -10 22 0 12 -3 18 -7 15 -3 -4 -16 5 -29 18 -13 14 -28 25 -35 25 -8
0 -8 4 1 15 7 8 9 16 4 16 -5 1 -13 2 -19 4 -5 1 -16 3 -24 3 -11 2 -11 5 0
19 13 15 12 15 -11 3 -24 -13 -24 -12 -10 6 8 10 10 16 6 12 -5 -4 -16 -2 -24
5 -13 9 -14 9 -8 0 5 -9 2 -11 -7 -7 -8 3 -20 15 -26 27 -8 16 -10 17 -6 3 5
-16 3 -17 -10 -6 -8 7 -12 17 -8 24 4 7 1 6 -9 -2 -12 -10 -20 -8 -44 10 -15
13 -25 18 -21 12 3 -6 0 -11 -8 -11 -8 0 -12 4 -10 8 3 4 -2 10 -11 13 -10 4
-13 2 -8 -6 5 -7 3 -8 -7 -2 -8 5 -24 9 -35 9 -12 0 -29 6 -37 13 -10 9 -17
10 -22 2 -3 -5 -11 -10 -16 -10 -6 0 -8 4 -5 9 7 10 -29 8 -58 -5 -14 -5 -17
-4 -12 4 10 17 0 15 -18 -3z m-101 -25 c-3 -5 -12 -10 -18 -10 -7 0 -6 4 3 10
19 12 23 12 15 0z m175 -190 c5 -8 9 -7 13 4 8 21 27 21 27 0 0 -10 5 -12 13
-7 18 11 38 13 31 2 -3 -5 -11 -6 -17 -2 -7 4 -6 0 2 -10 15 -18 26 -23 16 -7
-3 6 4 9 19 8 13 -1 22 -6 20 -10 -3 -4 -1 -8 5 -8 5 0 11 -6 14 -12 2 -7 3
-5 2 4 -2 10 2 21 7 25 6 3 8 1 4 -5 -3 -6 -2 -13 3 -17 6 -3 9 -11 7 -18 -1
-7 -1 -9 1 -4 3 4 9 7 14 7 6 0 7 -5 3 -11 -5 -9 1 -10 22 -5 23 5 25 4 12 -4
-26 -16 -22 -26 10 -24 22 1 27 -3 28 -22 1 -13 -3 -24 -9 -24 -6 0 -7 -3 -4
-6 4 -4 14 -1 24 7 14 11 15 11 9 0 -7 -10 -3 -12 15 -7 21 6 21 5 -3 -9 -34
-19 -36 -28 -4 -15 24 9 36 5 36 -13 0 -5 -7 -7 -15 -4 -8 4 -17 2 -20 -4 -4
-5 -1 -8 7 -7 8 2 12 -4 10 -14 -2 -10 2 -18 8 -18 6 0 8 5 5 10 -3 6 -1 10 4
10 15 0 14 -13 -1 -29 -10 -10 -10 -12 -1 -7 7 4 19 -6 30 -26 9 -18 17 -35
16 -38 0 -3 -4 -16 -8 -29 -4 -14 -3 -21 2 -18 5 4 10 0 10 -8 0 -8 -4 -12 -8
-9 -4 2 -10 0 -14 -6 -5 -9 7 -14 27 -11 8 1 5 -20 -6 -38 -5 -8 -3 -17 5 -23
11 -8 10 -9 -4 -4 -14 4 -16 1 -13 -19 3 -15 1 -23 -5 -20 -5 4 -6 11 -3 17 4
7 2 8 -4 4 -9 -5 -9 -13 -1 -28 10 -18 9 -20 -5 -15 -21 8 -20 -2 2 -19 16
-13 16 -14 -2 -7 -13 4 -17 3 -12 -5 4 -7 3 -12 -3 -12 -5 0 -8 -9 -6 -19 2
-13 -1 -18 -10 -15 -7 3 -16 0 -21 -7 -5 -8 -3 -10 7 -4 12 8 12 6 0 -9 -8 -9
-20 -15 -28 -12 -10 4 -11 1 -3 -14 9 -16 7 -18 -11 -15 -17 4 -19 2 -8 -11
10 -12 9 -13 -6 -8 -12 5 -16 4 -11 -4 4 -7 -1 -10 -13 -7 -15 3 -18 0 -14
-12 4 -11 2 -14 -5 -9 -7 4 -12 2 -12 -4 0 -6 -4 -8 -10 -5 -5 3 -10 1 -10 -6
0 -9 -3 -9 -14 0 -11 9 -16 9 -22 0 -4 -8 -3 -9 4 -5 7 4 12 3 12 -1 0 -5 -13
-14 -30 -20 -28 -11 -45 -1 -17 10 9 4 9 6 -1 6 -7 1 -15 -6 -18 -14 -4 -8
-10 -15 -16 -15 -5 0 -7 4 -4 8 2 4 -5 8 -17 9 -12 0 -16 -1 -9 -4 25 -10 11
-18 -32 -18 -25 -1 -43 2 -40 6 2 4 -3 10 -12 13 -8 3 -12 2 -9 -4 9 -14 -10
-12 -51 5 -20 8 -40 12 -45 9 -5 -3 -12 2 -15 10 -3 9 -14 16 -23 16 -25 1
-54 27 -45 41 4 7 3 10 -3 6 -14 -9 -55 23 -49 39 3 8 0 11 -8 8 -15 -6 -29
22 -19 38 3 6 1 8 -5 4 -14 -8 -42 32 -35 50 3 8 0 14 -6 14 -12 0 -15 36 -3
43 4 2 2 2 -5 1 -7 -2 -15 1 -18 6 -4 6 0 10 7 10 9 0 9 3 -2 10 -10 6 -11 10
-2 10 6 0 12 5 12 11 0 5 -5 7 -12 3 -7 -5 -9 -2 -5 8 3 9 0 21 -6 27 -8 8 -8
11 1 11 6 0 9 7 5 17 -4 11 -3 14 5 9 8 -5 10 -2 6 8 -3 9 -11 13 -18 10 -6
-3 -2 2 8 10 15 12 16 16 5 16 -11 0 -11 2 -1 9 8 4 13 14 12 22 -5 29 0 50
10 44 6 -3 10 1 10 11 0 9 8 23 18 31 9 8 11 11 4 8 -11 -6 -12 -3 -2 14 6 12
15 19 20 16 6 -3 7 1 4 10 -4 10 -2 15 7 13 8 -2 15 7 17 20 2 12 7 22 12 22
5 0 7 -8 5 -17 -3 -10 1 -4 9 12 8 17 15 26 16 20 0 -5 5 -2 11 7 6 11 16 15
26 11 13 -5 15 -2 9 12 -4 11 -4 16 0 12 4 -4 13 -2 20 4 16 13 37 2 28 -13
-5 -7 -2 -8 5 -4 7 5 10 15 6 23 -4 13 -3 14 10 3 13 -11 14 -10 9 3 -4 11 0
14 13 12 10 -2 18 -4 18 -5 0 -1 8 -3 18 -5 9 -2 17 3 17 10 0 15 50 11 60 -5z
m356 -230 c0 -12 -4 -16 -9 -11 -5 5 -6 14 -3 20 10 15 12 14 12 -9z m-956
-110 c0 -5 -2 -10 -4 -10 -3 0 -8 5 -11 10 -3 6 -1 10 4 10 6 0 11 -4 11 -10z
m83 -365 c-3 -9 -8 -14 -10 -11 -3 3 -2 9 2 15 9 16 15 13 8 -4z m51 -50 c-4
-8 1 -17 9 -21 9 -3 18 -13 22 -22 4 -11 -4 -7 -21 9 -14 15 -23 32 -20 38 10
16 16 13 10 -4z m133 -127 c-3 -8 -6 -5 -6 6 -1 11 2 17 5 13 3 -3 4 -12 1
-19z m31 -13 c-3 -3 -9 2 -12 12 -6 14 -5 15 5 6 7 -7 10 -15 7 -18z m532 -10
c-7 -8 -17 -15 -23 -15 -6 0 -2 7 9 15 25 19 30 19 14 0z"/>
<path d="M3411 4474 c0 -11 3 -14 6 -6 3 7 2 16 -1 19 -3 4 -6 -2 -5 -13z"/>
<path d="M3615 4371 c-3 -5 -2 -12 3 -15 5 -3 9 1 9 9 0 17 -3 19 -12 6z"/>
<path d="M3726 4185 c12 -9 14 -14 6 -15 -7 0 -10 -5 -6 -11 4 -8 9 -7 15 2 9
14 -7 39 -24 39 -6 0 -2 -7 9 -15z"/>
<path d="M3739 4078 c0 -2 -2 -11 -4 -21 -3 -15 -1 -16 11 -6 7 6 11 15 8 20
-5 9 -13 12 -15 7z"/>
<path d="M3036 3937 c3 -10 9 -15 12 -12 3 3 0 11 -7 18 -10 9 -11 8 -5 -6z"/>
<path d="M3107 3839 c7 -7 15 -10 18 -7 3 3 -2 9 -12 12 -14 6 -15 5 -6 -5z"/>
<path d="M3465 4700 c-3 -6 1 -7 9 -4 18 7 21 14 7 14 -6 0 -13 -4 -16 -10z"/>
<path d="M2979 4553 c-13 -16 -12 -17 4 -4 16 13 21 21 13 21 -2 0 -10 -8 -17
-17z"/>
<path d="M3810 4519 c0 -5 5 -7 10 -4 6 3 10 8 10 11 0 2 -4 4 -10 4 -5 0 -10
-5 -10 -11z"/>
<path d="M2829 4373 c-13 -15 -12 -15 9 -4 23 12 28 21 13 21 -5 0 -15 -7 -22
-17z"/>
<path d="M2803 4328 c3 -9 1 -18 -5 -20 -8 -3 -8 -10 1 -24 8 -12 11 -13 8 -3
-3 9 -1 21 3 25 5 5 5 15 -1 24 -9 13 -10 12 -6 -2z"/>
<path d="M4155 4279 c-4 -6 -5 -12 -2 -15 2 -3 7 2 10 11 7 17 1 20 -8 4z"/>
<path d="M4158 4220 c15 -18 16 -34 0 -24 -7 4 -8 3 -4 -5 6 -9 11 -9 22 0 8
6 13 12 12 13 -2 1 -12 8 -23 16 -17 12 -18 12 -7 0z"/>
<path d="M3973 4095 c0 -8 4 -12 9 -9 5 3 6 10 3 15 -9 13 -12 11 -12 -6z"/>
<path d="M3965 4020 c-3 -6 1 -7 9 -4 18 7 21 14 7 14 -6 0 -13 -4 -16 -10z"/>
<path d="M4155 4020 c3 -5 8 -10 11 -10 2 0 4 5 4 10 0 6 -5 10 -11 10 -5 0
-7 -4 -4 -10z"/>
<path d="M2615 3840 c-3 -5 -1 -10 4 -10 6 0 11 5 11 10 0 6 -2 10 -4 10 -3 0
-8 -4 -11 -10z"/>
<path d="M4125 3843 c3 -3 0 -11 -5 -18 -7 -8 -5 -12 4 -12 14 0 16 22 3 32
-4 3 -5 2 -2 -2z"/>
<path d="M2879 3743 c-13 -16 -12 -17 4 -4 16 13 21 21 13 21 -2 0 -10 -8 -17
-17z"/>
<path d="M2970 3651 c0 -6 4 -11 10 -11 5 0 8 -6 6 -12 -1 -7 -1 -9 2 -5 2 4
10 3 18 -4 8 -7 16 -10 18 -8 2 2 -10 14 -25 27 -16 13 -29 19 -29 13z"/>
<path d="M3115 3550 c-18 -6 -18 -7 3 -12 12 -3 26 0 31 6 12 14 -3 17 -34 6z"/>
<path d="M3995 3541 c-3 -5 -2 -12 3 -15 5 -3 9 1 9 9 0 17 -3 19 -12 6z"/>
<path d="M3285 3509 c-4 -6 -5 -12 -2 -15 2 -3 7 2 10 11 7 17 1 20 -8 4z"/>
<path d="M3440 2801 c0 -6 4 -13 10 -16 6 -3 7 1 4 9 -7 18 -14 21 -14 7z"/>
<path d="M3300 2785 c0 -2 6 -8 13 -14 10 -8 14 -7 14 2 0 8 -6 14 -14 14 -7
0 -13 -1 -13 -2z"/>
<path d="M240 3700 c-9 -6 -10 -10 -3 -10 6 0 15 5 18 10 8 12 4 12 -15 0z"/>
<path d="M310 3672 c0 -5 7 -9 15 -9 8 0 12 4 9 9 -3 4 -9 8 -15 8 -5 0 -9 -4
-9 -8z"/>
<path d="M950 3490 c0 -5 5 -10 11 -10 5 0 7 5 4 10 -3 6 -8 10 -11 10 -2 0
-4 -4 -4 -10z"/>
<path d="M1319 3388 c-8 -27 -5 -36 9 -30 10 4 12 7 4 10 -7 2 -10 8 -6 13 3
5 3 9 0 9 -3 0 -6 -1 -7 -2z"/>
<path d="M1391 3354 c0 -11 3 -14 6 -6 3 7 2 16 -1 19 -3 4 -6 -2 -5 -13z"/>
<path d="M1510 3320 c0 -5 5 -10 11 -10 5 0 7 5 4 10 -3 6 -8 10 -11 10 -2 0
-4 -4 -4 -10z"/>
<path d="M1595 3260 c-3 -5 -3 -10 2 -10 4 0 1 -5 -7 -11 -12 -8 -12 -10 -1
-7 8 2 15 12 17 21 3 19 -2 22 -11 7z"/>
<path d="M1590 3160 c0 -5 5 -10 10 -10 6 0 10 5 10 10 0 6 -4 10 -10 10 -5 0
-10 -4 -10 -10z"/>
<path d="M1590 3080 c0 -5 5 -10 10 -10 6 0 10 5 10 10 0 6 -4 10 -10 10 -5 0
-10 -4 -10 -10z"/>
<path d="M1590 3000 c0 -5 5 -10 10 -10 6 0 10 5 10 10 0 6 -4 10 -10 10 -5 0
-10 -4 -10 -10z"/>
<path d="M1590 2920 c0 -5 5 -10 10 -10 6 0 10 5 10 10 0 6 -4 10 -10 10 -5 0
-10 -4 -10 -10z"/>
<path d="M1590 2200 c0 -5 5 -10 10 -10 6 0 10 5 10 10 0 6 -4 10 -10 10 -5 0
-10 -4 -10 -10z"/>
<path d="M1590 2120 c0 -5 5 -10 10 -10 6 0 10 5 10 10 0 6 -4 10 -10 10 -5 0
-10 -4 -10 -10z"/>
<path d="M1590 2040 c0 -5 5 -10 10 -10 6 0 10 5 10 10 0 6 -4 10 -10 10 -5 0
-10 -4 -10 -10z"/>
<path d="M470 1974 c0 -8 6 -11 17 -7 12 5 14 3 8 -7 -5 -8 -4 -11 3 -6 6 4 9
12 6 20 -6 17 -34 17 -34 0z"/>
<path d="M1316 1967 c3 -10 9 -15 12 -12 3 3 0 11 -7 18 -10 9 -11 8 -5 -6z"/>
<path d="M1590 1960 c0 -5 5 -10 10 -10 6 0 10 5 10 10 0 6 -4 10 -10 10 -5 0
-10 -4 -10 -10z"/>
<path d="M593 1933 c0 -9 4 -10 14 -2 9 9 14 7 19 -5 3 -9 11 -16 17 -16 5 0
3 8 -6 18 -20 22 -44 25 -44 5z"/>
<path d="M1386 1938 c3 -5 10 -6 15 -3 13 9 11 12 -6 12 -8 0 -12 -4 -9 -9z"/>
<path d="M1161 1764 c0 -11 3 -14 6 -6 3 7 2 16 -1 19 -3 4 -6 -2 -5 -13z"/>
<path d="M1190 1757 c0 -5 10 -5 22 -1 21 6 22 6 8 -12 -14 -18 -14 -18 2 -5
10 7 15 17 13 21 -7 11 -45 8 -45 -3z"/>
<path d="M1590 1630 c0 -5 5 -10 11 -10 5 0 7 5 4 10 -3 6 -8 10 -11 10 -2 0
-4 -4 -4 -10z"/>
<path d="M1595 1291 c-3 -5 -2 -12 3 -15 5 -3 9 1 9 9 0 17 -3 19 -12 6z"/>
<path d="M1585 1200 c-3 -6 1 -7 9 -4 18 7 21 14 7 14 -6 0 -13 -4 -16 -10z"/>
<path d="M1585 880 c-3 -6 1 -7 9 -4 18 7 21 14 7 14 -6 0 -13 -4 -16 -10z"/>
<path d="M430 579 c0 -5 5 -7 10 -4 6 3 10 8 10 11 0 2 -4 4 -10 4 -5 0 -10
-5 -10 -11z"/>
<path d="M1585 560 c-3 -6 1 -7 9 -4 18 7 21 14 7 14 -6 0 -13 -4 -16 -10z"/>
<path d="M1575 249 c-4 -6 -5 -12 -2 -15 2 -3 7 2 10 11 7 17 1 20 -8 4z"/>
<path d="M2501 3474 c0 -11 3 -14 6 -6 3 7 2 16 -1 19 -3 4 -6 -2 -5 -13z"/>
<path d="M2154 3394 c-18 -14 -18 -15 4 -4 12 6 22 13 22 15 0 8 -5 6 -26 -11z"/>
<path d="M2590 3327 c0 -8 6 -17 14 -20 9 -4 13 0 12 11 -3 20 -26 29 -26 9z"/>
<path d="M2830 2981 c0 -5 7 -12 16 -15 14 -5 15 -4 4 9 -14 17 -20 19 -20 6z"/>
<path d="M3170 2580 c0 -5 5 -10 11 -10 5 0 7 5 4 10 -3 6 -8 10 -11 10 -2 0
-4 -4 -4 -10z"/>
<path d="M3215 2510 c-3 -6 1 -7 9 -4 18 7 21 14 7 14 -6 0 -13 -4 -16 -10z"/>
<path d="M4536 3407 c3 -10 9 -15 12 -12 3 3 0 11 -7 18 -10 9 -11 8 -5 -6z"/>
<path d="M4155 3380 c-3 -5 -1 -10 4 -10 6 0 11 5 11 10 0 6 -2 10 -4 10 -3 0
-8 -4 -11 -10z"/>
<path d="M4640 3371 c0 -6 4 -13 10 -16 6 -3 7 1 4 9 -7 18 -14 21 -14 7z"/>
<path d="M4676 3357 c3 -10 9 -15 12 -12 3 3 0 11 -7 18 -10 9 -11 8 -5 -6z"/>
<path d="M4881 3304 c-1 -6 5 -17 12 -23 10 -8 14 -7 14 4 0 8 -4 12 -8 9 -4
-2 -10 2 -12 8 -4 8 -6 9 -6 2z"/>
<path d="M4896 3192 c-3 -5 1 -9 9 -9 8 0 12 4 9 9 -3 4 -7 8 -9 8 -2 0 -6 -4
-9 -8z"/>
<path d="M4896 2872 c-3 -5 1 -9 9 -9 8 0 12 4 9 9 -3 4 -7 8 -9 8 -2 0 -6 -4
-9 -8z"/>
<path d="M4896 2552 c-3 -5 1 -9 9 -9 8 0 12 4 9 9 -3 4 -7 8 -9 8 -2 0 -6 -4
-9 -8z"/>
<path d="M3495 2520 c-3 -5 -1 -10 4 -10 6 0 11 5 11 10 0 6 -2 10 -4 10 -3 0
-8 -4 -11 -10z"/>
<path d="M4896 2232 c-3 -5 1 -9 9 -9 8 0 12 4 9 9 -3 4 -7 8 -9 8 -2 0 -6 -4
-9 -8z"/>
<path d="M4050 2146 c0 -3 9 -10 20 -16 11 -6 20 -8 20 -6 0 3 -9 10 -20 16
-11 6 -20 8 -20 6z"/>
<path d="M4893 1902 c-1 -10 5 -19 12 -19 10 0 11 5 4 19 -5 10 -11 18 -12 18
-2 0 -3 -8 -4 -18z"/>
<path d="M3636 2021 c-3 -5 1 -11 9 -14 9 -4 12 -1 8 9 -6 16 -10 17 -17 5z"/>
<path d="M3673 2007 c0 -8 6 -14 14 -14 9 0 10 4 2 14 -6 7 -12 13 -14 13 -1
0 -2 -6 -2 -13z"/>
<path d="M3253 1915 c0 -9 4 -14 9 -13 5 2 10 8 10 13 0 5 -5 11 -10 13 -5 1
-9 -4 -9 -13z"/>
<path d="M3980 1906 c0 -2 7 -7 16 -10 8 -3 12 -2 9 4 -6 10 -25 14 -25 6z"/>
<path d="M4066 1889 c3 -5 9 -7 14 -4 4 3 11 0 13 -5 3 -6 4 -5 3 1 -1 7 -10
13 -19 15 -9 1 -15 -2 -11 -7z"/>
<path d="M4376 1802 c-3 -5 1 -9 9 -9 8 0 12 4 9 9 -3 4 -7 8 -9 8 -2 0 -6 -4
-9 -8z"/>
<path d="M4490 1776 c0 -2 8 -10 18 -17 15 -13 16 -12 3 4 -13 16 -21 21 -21
13z"/>
<path d="M3260 1679 c0 -5 -4 -7 -10 -4 -6 3 -7 -1 -4 -10 5 -12 10 -13 20 -4
8 6 11 15 8 20 -7 12 -14 11 -14 -2z"/>
<path d="M4897 1597 c-3 -8 1 -14 8 -14 7 0 11 6 8 14 -3 7 -6 13 -8 13 -2 0
-5 -6 -8 -13z"/>
<path d="M3235 1580 c-3 -5 -1 -10 4 -10 6 0 11 5 11 10 0 6 -2 10 -4 10 -3 0
-8 -4 -11 -10z"/>
<path d="M3250 1496 c0 -2 7 -7 16 -10 8 -3 12 -2 9 4 -6 10 -25 14 -25 6z"/>
<path d="M3326 1452 c-3 -6 -1 -14 5 -17 15 -10 25 3 12 16 -7 7 -13 7 -17 1z"/>
<path d="M3395 1451 c-3 -5 -2 -12 3 -15 5 -3 9 1 9 9 0 17 -3 19 -12 6z"/>
<path d="M4896 1272 c-3 -5 1 -9 9 -9 8 0 12 4 9 9 -3 4 -7 8 -9 8 -2 0 -6 -4
-9 -8z"/>
<path d="M3237 1143 c3 -7 6 -13 8 -13 2 0 5 6 8 13 3 8 -1 14 -8 14 -7 0 -11
-6 -8 -14z"/>
<path d="M3240 945 c-7 -9 -8 -15 -2 -15 5 0 12 7 16 15 3 8 4 15 2 15 -2 0
-9 -7 -16 -15z"/>
<path d="M4896 952 c-3 -5 1 -9 9 -9 8 0 12 4 9 9 -3 4 -7 8 -9 8 -2 0 -6 -4
-9 -8z"/>
<path d="M3240 665 c-7 -9 -8 -15 -2 -15 5 0 12 7 16 15 3 8 4 15 2 15 -2 0
-9 -7 -16 -15z"/>
<path d="M3495 661 c-3 -5 -2 -12 3 -15 5 -3 9 1 9 9 0 17 -3 19 -12 6z"/>
<path d="M4896 632 c-3 -5 1 -9 9 -9 8 0 12 4 9 9 -3 4 -7 8 -9 8 -2 0 -6 -4
-9 -8z"/>
<path d="M3635 611 c-3 -5 -2 -12 3 -15 5 -3 9 1 9 9 0 17 -3 19 -12 6z"/>
<path d="M4896 312 c-3 -5 1 -9 9 -9 8 0 12 4 9 9 -3 4 -7 8 -9 8 -2 0 -6 -4
-9 -8z"/>
<path d="M4270 4621 c0 -6 4 -13 10 -16 6 -3 7 1 4 9 -7 18 -14 21 -14 7z"/>
<path d="M2346 4338 c3 -5 10 -6 15 -3 13 9 11 12 -6 12 -8 0 -12 -4 -9 -9z"/>
<path d="M2330 3939 c0 -5 5 -7 10 -4 6 3 10 8 10 11 0 2 -4 4 -10 4 -5 0 -10
-5 -10 -11z"/>
<path d="M2360 3795 c-11 -13 -10 -14 4 -9 9 3 16 10 16 15 0 13 -6 11 -20 -6z"/>
<path d="M2390 3699 c0 -5 5 -7 10 -4 6 3 10 8 10 11 0 2 -4 4 -10 4 -5 0 -10
-5 -10 -11z"/>
<path d="M4746 3578 c3 -5 10 -6 15 -3 13 9 11 12 -6 12 -8 0 -12 -4 -9 -9z"/>
<path d="M67 433 c3 -7 6 -13 8 -13 2 0 5 6 8 13 3 8 -1 14 -8 14 -7 0 -11 -6
-8 -14z"/>
<path d="M90 420 c0 -5 5 -10 11 -10 5 0 7 5 4 10 -3 6 -8 10 -11 10 -2 0 -4
-4 -4 -10z"/>
<path d="M2969 333 c-12 -16 -12 -17 2 -6 9 7 20 9 24 5 5 -4 5 -1 1 6 -9 16
-11 15 -27 -5z"/>
<path d="M440 336 c0 -2 8 -10 18 -17 15 -13 16 -12 3 4 -13 16 -21 21 -21 13z"/>
<path d="M530 302 c0 -12 3 -12 15 -2 8 7 15 13 15 15 0 1 -7 2 -15 2 -8 0
-15 -7 -15 -15z"/>
<path d="M4198 183 c7 -3 16 -2 19 1 4 3 -2 6 -13 5 -11 0 -14 -3 -6 -6z"/>
<path d="M1111 134 c0 -11 3 -14 6 -6 3 7 2 16 -1 19 -3 4 -6 -2 -5 -13z"/>
<path d="M2270 129 c0 -5 5 -7 10 -4 6 3 10 8 10 11 0 2 -4 4 -10 4 -5 0 -10
-5 -10 -11z"/>
<path d="M4416 131 c-4 -5 4 -7 16 -3 16 4 19 2 13 -8 -5 -9 -4 -11 4 -6 6 4
9 12 6 17 -8 12 -32 12 -39 0z"/>
<path d="M1213 93 c0 -9 4 -10 12 -3 7 5 15 7 18 3 4 -3 7 -1 7 5 0 6 -8 10
-18 9 -10 0 -19 -7 -19 -14z"/>
<path d="M4516 102 c-3 -5 1 -9 9 -9 8 0 12 4 9 9 -3 4 -7 8 -9 8 -2 0 -6 -4
-9 -8z"/>
<path d="M4640 60 c-9 -6 -10 -10 -3 -10 6 0 15 5 18 10 8 12 4 12 -15 0z"/>
<path d="M1465 29 c-4 -6 -4 -13 -1 -16 3 -4 6 -1 6 7 0 10 4 10 18 -1 15 -13
16 -12 3 4 -16 20 -18 20 -26 6z"/>
</g>
</svg>
